<svg width="254" height="99" viewBox="0 0 254 99" fill="none" xmlns="http://www.w3.org/2000/svg">
<path fill-rule="evenodd" clip-rule="evenodd" d="M85.0816 17.1353H40.5C23.6553 17.1353 10 30.7906 10 47.6353C10 64.4799 23.6553 78.1353 40.5 78.1353H85.0816V77.1353H40.5C24.2076 77.1353 11 63.9277 11 47.6353C11 31.3429 24.2076 18.1353 40.5 18.1353H85.0816V17.1353ZM170.531 77.1353H213.5C229.792 77.1353 243 63.9277 243 47.6353C243 31.3429 229.792 18.1353 213.5 18.1353H170.531V17.1353H213.5C230.345 17.1353 244 30.7906 244 47.6353C244 64.4799 230.345 78.1353 213.5 78.1353H170.531V77.1353Z" fill="#0C0B10"/>
<rect y="26.1353" width="254" height="55" rx="27.5" fill="#0C0B10"/>
<path d="M28.442 60.3953H28.562C28.69 60.3953 28.802 60.3553 28.898 60.2753C28.994 60.1793 29.074 60.0673 29.138 59.9393C29.218 59.8113 29.274 59.6753 29.306 59.5313C29.354 59.3873 29.378 59.2513 29.378 59.1233V46.2833C29.378 46.1713 29.354 46.0433 29.306 45.8993C29.274 45.7553 29.218 45.6193 29.138 45.4913C29.074 45.3633 28.994 45.2593 28.898 45.1793C28.802 45.0833 28.69 45.0353 28.562 45.0353H28.442V44.7953H31.898V45.0353H31.778C31.65 45.0353 31.538 45.0833 31.442 45.1793C31.346 45.2593 31.266 45.3633 31.202 45.4913C31.138 45.6193 31.082 45.7553 31.034 45.8993C31.002 46.0433 30.986 46.1713 30.986 46.2833V59.7473H36.242C36.546 59.7473 36.81 59.6753 37.034 59.5313C37.258 59.3873 37.442 59.2113 37.586 59.0033C37.746 58.7793 37.858 58.5473 37.922 58.3073C38.002 58.0513 38.042 57.8193 38.042 57.6113H38.282V60.6353H28.442V60.3953ZM39.7145 44.7953H43.1225V45.0353H43.0025C42.8745 45.0353 42.7625 45.0833 42.6665 45.1793C42.5705 45.2593 42.4825 45.3633 42.4025 45.4913C42.3385 45.6193 42.2905 45.7553 42.2585 45.8993C42.2265 46.0433 42.2105 46.1713 42.2105 46.2833V55.7633C42.2105 56.3873 42.2745 56.9633 42.4025 57.4913C42.5305 58.0193 42.7465 58.4753 43.0505 58.8593C43.3545 59.2433 43.7545 59.5473 44.2505 59.7713C44.7465 59.9793 45.3545 60.0833 46.0745 60.0833C46.8745 60.0833 47.5145 59.9553 47.9945 59.6993C48.4745 59.4433 48.8425 59.1153 49.0985 58.7153C49.3545 58.2993 49.5225 57.8353 49.6025 57.3233C49.6825 56.8113 49.7225 56.3073 49.7225 55.8113V46.2833C49.7225 46.1713 49.7065 46.0433 49.6745 45.8993C49.6425 45.7553 49.5865 45.6193 49.5065 45.4913C49.4425 45.3633 49.3625 45.2593 49.2665 45.1793C49.1705 45.0833 49.0665 45.0353 48.9545 45.0353H48.8345V44.7953H51.4505V45.0353H51.3305C51.2025 45.0353 51.0905 45.0833 50.9945 45.1793C50.9145 45.2593 50.8345 45.3633 50.7545 45.4913C50.6905 45.6193 50.6425 45.7553 50.6105 45.8993C50.5785 46.0433 50.5625 46.1713 50.5625 46.2833V55.7393C50.5625 56.7793 50.4345 57.6353 50.1785 58.3073C49.9225 58.9633 49.5705 59.4833 49.1225 59.8673C48.6745 60.2513 48.1465 60.5153 47.5385 60.6593C46.9465 60.8033 46.3145 60.8753 45.6425 60.8753C44.9225 60.8753 44.2505 60.7953 43.6265 60.6353C43.0185 60.4913 42.4905 60.2273 42.0425 59.8433C41.5945 59.4593 41.2425 58.9393 40.9865 58.2833C40.7305 57.6113 40.6025 56.7713 40.6025 55.7633V46.2833C40.6025 46.1713 40.5865 46.0433 40.5545 45.8993C40.5225 45.7553 40.4665 45.6193 40.3865 45.4913C40.3225 45.3633 40.2425 45.2593 40.1465 45.1793C40.0505 45.0833 39.9465 45.0353 39.8345 45.0353H39.7145V44.7953ZM58.8182 52.6913L55.4822 46.4513C55.4022 46.3233 55.3062 46.1793 55.1942 46.0193C55.0982 45.8433 54.9942 45.6833 54.8822 45.5393C54.7702 45.3953 54.6422 45.2753 54.4982 45.1793C54.3702 45.0833 54.2342 45.0353 54.0902 45.0353V44.7953H57.4982V45.0353C57.4022 45.0353 57.2902 45.0993 57.1622 45.2273C57.0502 45.3553 56.9942 45.5153 56.9942 45.7073C56.9942 45.8193 57.0262 45.9313 57.0902 46.0433L59.8022 51.0833L62.2742 46.2833C62.2742 46.2353 62.2982 46.1873 62.3462 46.1393C62.3782 46.0593 62.4102 45.9793 62.4422 45.8993C62.4902 45.8033 62.5142 45.7153 62.5142 45.6353C62.5142 45.3793 62.4262 45.2193 62.2502 45.1553C62.0742 45.0753 61.9622 45.0353 61.9142 45.0353V44.7953H64.5782V45.0353C64.3062 45.0353 64.0422 45.1873 63.7862 45.4913C63.5462 45.7793 63.3542 46.0673 63.2102 46.3553L60.2822 51.9473L64.0262 59.0033C64.1062 59.1473 64.2022 59.2993 64.3142 59.4593C64.4262 59.6193 64.5462 59.7713 64.6742 59.9153C64.8022 60.0593 64.9302 60.1793 65.0582 60.2753C65.2022 60.3553 65.3462 60.3953 65.4902 60.3953V60.6353H62.0822V60.3953C62.1782 60.3953 62.2742 60.3313 62.3702 60.2033C62.4662 60.0753 62.5142 59.9233 62.5142 59.7473C62.5142 59.6353 62.4662 59.4913 62.3702 59.3153L59.3222 53.6033L56.3222 59.3153C56.2742 59.4113 56.2262 59.5233 56.1782 59.6513C56.1462 59.7793 56.1302 59.8993 56.1302 60.0113C56.1302 60.2673 56.2502 60.3953 56.4902 60.3953V60.6353H53.8742V60.3953C53.9862 60.3953 54.1142 60.3633 54.2582 60.2993C54.4022 60.2193 54.5462 60.1233 54.6902 60.0113C54.8342 59.8993 54.9702 59.7713 55.0982 59.6273C55.2262 59.4833 55.3302 59.3473 55.4102 59.2193L58.8182 52.6913ZM67.9783 44.7953H71.3863V45.0353H71.2663C71.1383 45.0353 71.0263 45.0833 70.9303 45.1793C70.8343 45.2593 70.7463 45.3633 70.6663 45.4913C70.6023 45.6193 70.5543 45.7553 70.5223 45.8993C70.4903 46.0433 70.4743 46.1713 70.4743 46.2833V55.7633C70.4743 56.3873 70.5383 56.9633 70.6663 57.4913C70.7943 58.0193 71.0103 58.4753 71.3143 58.8593C71.6183 59.2433 72.0183 59.5473 72.5143 59.7713C73.0103 59.9793 73.6183 60.0833 74.3383 60.0833C75.1383 60.0833 75.7783 59.9553 76.2583 59.6993C76.7383 59.4433 77.1063 59.1153 77.3623 58.7153C77.6183 58.2993 77.7863 57.8353 77.8663 57.3233C77.9463 56.8113 77.9863 56.3073 77.9863 55.8113V46.2833C77.9863 46.1713 77.9703 46.0433 77.9383 45.8993C77.9063 45.7553 77.8503 45.6193 77.7703 45.4913C77.7063 45.3633 77.6263 45.2593 77.5303 45.1793C77.4343 45.0833 77.3303 45.0353 77.2183 45.0353H77.0983V44.7953H79.7143V45.0353H79.5943C79.4663 45.0353 79.3543 45.0833 79.2583 45.1793C79.1783 45.2593 79.0983 45.3633 79.0183 45.4913C78.9543 45.6193 78.9063 45.7553 78.8743 45.8993C78.8423 46.0433 78.8263 46.1713 78.8263 46.2833V55.7393C78.8263 56.7793 78.6983 57.6353 78.4423 58.3073C78.1863 58.9633 77.8343 59.4833 77.3863 59.8673C76.9383 60.2513 76.4103 60.5153 75.8023 60.6593C75.2103 60.8033 74.5783 60.8753 73.9063 60.8753C73.1863 60.8753 72.5143 60.7953 71.8903 60.6353C71.2823 60.4913 70.7543 60.2273 70.3063 59.8433C69.8583 59.4593 69.5063 58.9393 69.2503 58.2833C68.9943 57.6113 68.8663 56.7713 68.8663 55.7633V46.2833C68.8663 46.1713 68.8503 46.0433 68.8183 45.8993C68.7863 45.7553 68.7303 45.6193 68.6503 45.4913C68.5863 45.3633 68.5063 45.2593 68.4103 45.1793C68.3143 45.0833 68.2103 45.0353 68.0983 45.0353H67.9783V44.7953ZM86.2179 60.3953H86.3379V60.6353H82.9539V60.3953H83.0739C83.1859 60.3953 83.2899 60.3473 83.3859 60.2513C83.4819 60.1553 83.5619 60.0433 83.6259 59.9153C83.7059 59.7873 83.7619 59.6513 83.7939 59.5073C83.8259 59.3473 83.8419 59.2033 83.8419 59.0753V46.2833C83.8419 46.1713 83.8259 46.0433 83.7939 45.8993C83.7619 45.7553 83.7059 45.6193 83.6259 45.4913C83.5619 45.3633 83.4819 45.2593 83.3859 45.1793C83.2899 45.0833 83.1859 45.0353 83.0739 45.0353H82.9539V44.7953H87.1299C88.7299 44.7953 89.9619 45.1073 90.8259 45.7313C91.7059 46.3553 92.1459 47.2753 92.1459 48.4913C92.1459 49.0993 92.0419 49.6353 91.8339 50.0993C91.6419 50.5473 91.3779 50.9393 91.0419 51.2753C90.7059 51.5953 90.3059 51.8593 89.8419 52.0673C89.3939 52.2593 88.9139 52.4033 88.4019 52.4993L90.1299 55.1393C90.5459 55.7793 90.9699 56.4113 91.4019 57.0353C91.8339 57.6433 92.2579 58.2753 92.6739 58.9313C92.7859 59.0913 92.9059 59.2593 93.0339 59.4353C93.1779 59.6113 93.3219 59.7713 93.4659 59.9153C93.6259 60.0593 93.7859 60.1793 93.9459 60.2753C94.1219 60.3553 94.2979 60.3953 94.4739 60.3953V60.6353H93.4419C92.8019 60.6353 92.2739 60.4833 91.8579 60.1793C91.4579 59.8593 91.1219 59.4913 90.8499 59.0753C90.1299 58.0193 89.4099 56.9473 88.6899 55.8593C87.9859 54.7713 87.2819 53.6993 86.5779 52.6433C86.4019 52.6273 86.2099 52.6113 86.0019 52.5953C85.8099 52.5633 85.6259 52.5313 85.4499 52.4993V59.0753C85.4499 59.2033 85.4659 59.3473 85.4979 59.5073C85.5299 59.6513 85.5779 59.7873 85.6419 59.9153C85.7219 60.0433 85.8019 60.1553 85.8819 60.2513C85.9779 60.3473 86.0899 60.3953 86.2179 60.3953ZM85.4499 45.6113V51.7073H85.5699C85.6979 51.7233 85.8979 51.7393 86.1699 51.7553C86.4579 51.7553 86.8099 51.7553 87.2259 51.7553C87.5619 51.7553 87.9139 51.7073 88.2819 51.6113C88.6659 51.4993 89.0179 51.3233 89.3379 51.0833C89.6739 50.8273 89.9459 50.4993 90.1539 50.0993C90.3779 49.6993 90.4899 49.1953 90.4899 48.5873C90.4899 47.9793 90.3699 47.4833 90.1299 47.0993C89.9059 46.7153 89.5859 46.4113 89.1699 46.1873C88.7699 45.9633 88.2819 45.8113 87.7059 45.7313C87.1299 45.6513 86.4979 45.6113 85.8099 45.6113H85.4499ZM95.8668 44.7953H99.1788V45.0353C99.0668 45.0513 98.9628 45.0993 98.8668 45.1793C98.7708 45.2593 98.7228 45.3793 98.7228 45.5393C98.7228 45.6193 98.7468 45.7073 98.7948 45.8033L102.395 52.1153L105.851 46.1393C105.915 46.0113 105.955 45.9153 105.971 45.8513C106.003 45.7873 106.019 45.7073 106.019 45.6113C105.987 45.3553 105.891 45.1953 105.731 45.1313C105.587 45.0673 105.499 45.0353 105.467 45.0353V44.7953H108.035V45.0353C107.795 45.0353 107.547 45.1873 107.291 45.4913C107.051 45.7793 106.843 46.0753 106.667 46.3793L102.923 52.8593V59.0753C102.923 59.2033 102.939 59.3393 102.971 59.4833C103.019 59.6273 103.075 59.7713 103.139 59.9153C103.203 60.0433 103.283 60.1553 103.379 60.2513C103.475 60.3473 103.587 60.3953 103.715 60.3953H103.835V60.6353H100.403V60.3953H100.523C100.651 60.3953 100.763 60.3553 100.859 60.2753C100.955 60.1793 101.035 60.0673 101.099 59.9393C101.179 59.7953 101.235 59.6513 101.267 59.5073C101.299 59.3473 101.315 59.2033 101.315 59.0753V53.0753L97.4508 46.4513C97.3708 46.3233 97.2748 46.1793 97.1628 46.0193C97.0508 45.8593 96.9308 45.7073 96.8028 45.5633C96.6748 45.4193 96.5388 45.2993 96.3948 45.2033C96.2508 45.0913 96.1148 45.0353 95.9868 45.0353H95.8668V44.7953ZM117.708 44.7953H121.116C122.892 44.7953 124.236 45.1393 125.148 45.8273C126.076 46.4993 126.54 47.4593 126.54 48.7073C126.54 49.3793 126.38 49.9793 126.06 50.5073C125.74 51.0353 125.316 51.4833 124.788 51.8513C124.276 52.2033 123.692 52.4753 123.036 52.6673C122.396 52.8593 121.756 52.9553 121.116 52.9553H120.204V59.0753C120.204 59.2033 120.22 59.3473 120.252 59.5073C120.284 59.6513 120.332 59.7873 120.396 59.9153C120.476 60.0433 120.556 60.1553 120.636 60.2513C120.732 60.3473 120.844 60.3953 120.972 60.3953H121.092V60.6353H117.708V60.3953H117.828C117.94 60.3953 118.044 60.3473 118.14 60.2513C118.236 60.1553 118.316 60.0433 118.38 59.9153C118.444 59.7873 118.492 59.6513 118.524 59.5073C118.556 59.3473 118.572 59.2033 118.572 59.0753V46.2833C118.572 46.0593 118.508 45.8033 118.38 45.5153C118.252 45.2273 118.068 45.0673 117.828 45.0353H117.708V44.7953ZM120.204 45.6353V52.1153H120.924C121.564 52.1153 122.132 52.0273 122.628 51.8513C123.14 51.6753 123.564 51.4433 123.9 51.1553C124.236 50.8673 124.492 50.5393 124.668 50.1713C124.844 49.8033 124.932 49.4273 124.932 49.0433C124.932 48.5793 124.852 48.1473 124.692 47.7473C124.548 47.3313 124.3 46.9713 123.948 46.6673C123.612 46.3473 123.164 46.0993 122.604 45.9233C122.044 45.7313 121.356 45.6353 120.54 45.6353H120.204ZM135.079 60.3953H135.199C135.583 60.3953 135.775 60.2193 135.775 59.8673C135.775 59.7393 135.751 59.6033 135.703 59.4593L133.543 53.6273H129.343L127.255 59.3633C127.207 59.4913 127.183 59.6113 127.183 59.7233C127.183 59.9313 127.239 60.0993 127.351 60.2273C127.463 60.3393 127.583 60.3953 127.711 60.3953H127.831V60.6353H125.167V60.3953H125.287C125.495 60.3953 125.695 60.2753 125.887 60.0353C126.095 59.7793 126.263 59.4833 126.391 59.1473L131.887 44.5073L137.263 59.0033C137.375 59.3233 137.527 59.6353 137.719 59.9393C137.927 60.2433 138.191 60.3953 138.511 60.3953H138.631V60.6353H135.079V60.3953ZM129.583 52.8113H133.279L131.431 47.7953L129.583 52.8113ZM149.475 45.4193C148.291 45.4193 147.259 45.6353 146.379 46.0673C145.515 46.4833 144.795 47.0353 144.219 47.7233C143.643 48.3953 143.211 49.1553 142.923 50.0033C142.651 50.8513 142.515 51.6913 142.515 52.5233C142.515 53.4673 142.699 54.3953 143.067 55.3073C143.435 56.2033 143.939 57.0033 144.579 57.7073C145.235 58.3953 145.995 58.9553 146.859 59.3873C147.723 59.8033 148.659 60.0113 149.667 60.0113C149.955 60.0113 150.291 59.9793 150.675 59.9153C151.075 59.8513 151.467 59.7313 151.851 59.5553C152.235 59.3633 152.587 59.0993 152.907 58.7633C153.243 58.4273 153.499 57.9873 153.675 57.4433H153.915V60.1073C153.675 60.1073 153.419 60.1393 153.147 60.2033C152.891 60.2673 152.603 60.3393 152.283 60.4193C151.867 60.5313 151.403 60.6353 150.891 60.7313C150.395 60.8273 149.867 60.8753 149.307 60.8753C147.915 60.8753 146.691 60.6353 145.635 60.1553C144.579 59.6753 143.699 59.0513 142.995 58.2833C142.291 57.5153 141.763 56.6513 141.411 55.6913C141.059 54.7153 140.883 53.7313 140.883 52.7393C140.883 51.7473 141.059 50.7633 141.411 49.7873C141.763 48.8113 142.299 47.9393 143.019 47.1713C143.739 46.3873 144.643 45.7553 145.731 45.2753C146.819 44.7953 148.099 44.5553 149.571 44.5553C150.099 44.5553 150.571 44.6033 150.987 44.6993C151.419 44.7953 151.803 44.8913 152.139 44.9873C152.379 45.0673 152.595 45.1313 152.787 45.1793C152.995 45.2113 153.195 45.2273 153.387 45.2273V47.8913H153.147C153.051 47.3953 152.875 46.9873 152.619 46.6673C152.363 46.3313 152.059 46.0753 151.707 45.8993C151.371 45.7233 151.003 45.6033 150.603 45.5393C150.219 45.4593 149.843 45.4193 149.475 45.4193ZM160.252 60.3953H160.372V60.6353H156.94V60.3953H157.06C157.188 60.3953 157.3 60.3473 157.396 60.2513C157.492 60.1553 157.572 60.0433 157.636 59.9153C157.716 59.7873 157.772 59.6513 157.804 59.5073C157.836 59.3473 157.852 59.2033 157.852 59.0753V46.2833C157.852 46.1713 157.836 46.0433 157.804 45.8993C157.772 45.7553 157.716 45.6193 157.636 45.4913C157.572 45.3633 157.492 45.2593 157.396 45.1793C157.3 45.0833 157.196 45.0353 157.084 45.0353H156.964V44.7953H160.396V45.0353H160.276C160.148 45.0353 160.036 45.0833 159.94 45.1793C159.844 45.2593 159.756 45.3633 159.676 45.4913C159.612 45.6193 159.556 45.7553 159.508 45.8993C159.476 46.0433 159.46 46.1713 159.46 46.2833V51.8513L165.556 45.8033C165.652 45.6913 165.7 45.5633 165.7 45.4193C165.7 45.1633 165.604 45.0353 165.412 45.0353H165.292V44.7953H168.22V45.0353H168.1C167.876 45.0353 167.644 45.1153 167.404 45.2753C167.164 45.4353 166.924 45.6353 166.684 45.8753L161.644 50.8913L166.948 58.9313C166.964 58.9633 167.036 59.0593 167.164 59.2193C167.292 59.3793 167.444 59.5473 167.62 59.7233C167.812 59.8993 168.02 60.0593 168.244 60.2033C168.484 60.3313 168.724 60.3953 168.964 60.3953V60.6353H168.388C167.908 60.6353 167.5 60.6113 167.164 60.5633C166.844 60.4993 166.564 60.4033 166.324 60.2753C166.084 60.1473 165.868 59.9873 165.676 59.7953C165.5 59.6033 165.316 59.3633 165.124 59.0753L160.468 52.0433L159.46 53.0753V59.0753C159.46 59.2033 159.476 59.3393 159.508 59.4833C159.556 59.6273 159.612 59.7713 159.676 59.9153C159.74 60.0433 159.82 60.1553 159.916 60.2513C160.012 60.3473 160.124 60.3953 160.252 60.3953ZM180.662 60.3953H180.782C181.166 60.3953 181.358 60.2193 181.358 59.8673C181.358 59.7393 181.334 59.6033 181.286 59.4593L179.126 53.6273H174.926L172.838 59.3633C172.79 59.4913 172.766 59.6113 172.766 59.7233C172.766 59.9313 172.822 60.0993 172.934 60.2273C173.046 60.3393 173.166 60.3953 173.294 60.3953H173.414V60.6353H170.75V60.3953H170.87C171.078 60.3953 171.278 60.2753 171.47 60.0353C171.678 59.7793 171.846 59.4833 171.974 59.1473L177.47 44.5073L182.846 59.0033C182.958 59.3233 183.11 59.6353 183.302 59.9393C183.51 60.2433 183.774 60.3953 184.094 60.3953H184.214V60.6353H180.662V60.3953ZM175.166 52.8113H178.862L177.014 47.7953L175.166 52.8113ZM196.93 52.2833H200.362V52.5233H200.242C200.114 52.5233 200.002 52.5713 199.906 52.6673C199.81 52.7473 199.73 52.8513 199.666 52.9793C199.602 53.1073 199.546 53.2433 199.498 53.3873C199.466 53.5313 199.45 53.6593 199.45 53.7713V60.2033C199.162 60.3153 198.834 60.4113 198.466 60.4913C198.098 60.5713 197.714 60.6353 197.314 60.6833C196.914 60.7473 196.506 60.7953 196.09 60.8273C195.674 60.8593 195.29 60.8753 194.938 60.8753C193.498 60.8753 192.242 60.6353 191.17 60.1553C190.098 59.6753 189.21 59.0513 188.506 58.2833C187.802 57.4993 187.274 56.6193 186.922 55.6433C186.586 54.6673 186.418 53.6833 186.418 52.6913C186.418 51.6993 186.586 50.7153 186.922 49.7393C187.274 48.7633 187.802 47.8913 188.506 47.1233C189.226 46.3553 190.122 45.7393 191.194 45.2753C192.282 44.7953 193.57 44.5553 195.058 44.5553C195.618 44.5553 196.138 44.6033 196.618 44.6993C197.098 44.7953 197.522 44.8833 197.89 44.9633C198.098 45.0113 198.274 45.0593 198.418 45.1073C198.578 45.1393 198.714 45.1553 198.826 45.1553H199.042V47.6993H198.802C198.706 47.2033 198.514 46.8033 198.226 46.4993C197.954 46.1953 197.634 45.9633 197.266 45.8033C196.898 45.6433 196.506 45.5393 196.09 45.4913C195.69 45.4273 195.314 45.3953 194.962 45.3953C193.762 45.3953 192.722 45.6113 191.842 46.0433C190.962 46.4593 190.242 47.0033 189.682 47.6753C189.122 48.3473 188.706 49.1073 188.434 49.9553C188.162 50.7873 188.026 51.6193 188.026 52.4513C188.026 53.3793 188.202 54.2993 188.554 55.2113C188.906 56.1073 189.402 56.9153 190.042 57.6353C190.682 58.3393 191.45 58.9153 192.346 59.3633C193.258 59.7953 194.266 60.0113 195.37 60.0113C195.674 60.0113 196.05 59.9793 196.498 59.9153C196.946 59.8353 197.394 59.6673 197.842 59.4113V53.7713C197.842 53.6593 197.826 53.5313 197.794 53.3873C197.762 53.2433 197.706 53.1073 197.626 52.9793C197.562 52.8513 197.482 52.7473 197.386 52.6673C197.29 52.5713 197.178 52.5233 197.05 52.5233H196.93V52.2833ZM203.344 60.3953H203.464C203.592 60.3953 203.704 60.3553 203.8 60.2753C203.896 60.1793 203.976 60.0673 204.04 59.9393C204.12 59.8113 204.176 59.6753 204.208 59.5313C204.256 59.3873 204.28 59.2513 204.28 59.1233V46.2833C204.28 46.1713 204.256 46.0433 204.208 45.8993C204.176 45.7553 204.12 45.6193 204.04 45.4913C203.976 45.3633 203.896 45.2593 203.8 45.1793C203.704 45.0833 203.592 45.0353 203.464 45.0353H203.344V44.7953H212.584V47.0273H212.344C212.312 46.6593 212.168 46.3393 211.912 46.0673C211.656 45.7793 211.256 45.6353 210.712 45.6353H205.888V51.7073H209.872C210.24 51.7073 210.544 51.5953 210.784 51.3713C211.04 51.1473 211.168 50.8833 211.168 50.5793H211.408V53.5793H211.168C211.168 53.2913 211.048 53.0433 210.808 52.8353C210.568 52.6273 210.256 52.5233 209.872 52.5233H205.888V59.7953H211.144C211.448 59.7953 211.712 59.7233 211.936 59.5793C212.16 59.4353 212.344 59.2673 212.488 59.0753C212.648 58.8673 212.76 58.6513 212.824 58.4273C212.904 58.1873 212.944 57.9873 212.944 57.8273H213.184V60.6353H203.344V60.3953ZM225.672 56.3873C225.672 57.1873 225.512 57.8753 225.192 58.4513C224.872 59.0113 224.456 59.4673 223.944 59.8193C223.448 60.1713 222.88 60.4273 222.24 60.5873C221.616 60.7473 220.992 60.8273 220.368 60.8273C219.728 60.8273 219.176 60.7633 218.712 60.6353C218.248 60.5073 217.824 60.3873 217.44 60.2753C217.184 60.1953 216.952 60.1313 216.744 60.0833C216.536 60.0193 216.328 59.9873 216.12 59.9873V57.2513H216.36C216.36 57.8593 216.512 58.3473 216.816 58.7153C217.136 59.0673 217.504 59.3393 217.92 59.5313C218.336 59.7233 218.752 59.8513 219.168 59.9153C219.584 59.9633 219.888 59.9873 220.08 59.9873C220.768 59.9873 221.36 59.8913 221.856 59.6993C222.352 59.4913 222.76 59.2273 223.08 58.9073C223.4 58.5713 223.632 58.2033 223.776 57.8033C223.936 57.4033 224.016 56.9953 224.016 56.5793C224.016 56.0513 223.904 55.6113 223.68 55.2593C223.456 54.8913 223.16 54.5713 222.792 54.2993C222.44 54.0273 222.032 53.7953 221.568 53.6033C221.104 53.4113 220.632 53.2193 220.152 53.0273C219.608 52.8193 219.072 52.6033 218.544 52.3793C218.016 52.1553 217.544 51.8833 217.128 51.5633C216.712 51.2273 216.376 50.8353 216.12 50.3873C215.864 49.9233 215.736 49.3553 215.736 48.6833C215.736 47.9793 215.872 47.3713 216.144 46.8593C216.416 46.3313 216.776 45.8993 217.224 45.5633C217.688 45.2273 218.208 44.9793 218.784 44.8193C219.376 44.6433 219.976 44.5553 220.584 44.5553C221 44.5553 221.392 44.5873 221.76 44.6513C222.128 44.6993 222.48 44.7633 222.816 44.8433C223.088 44.9073 223.352 44.9633 223.608 45.0113C223.864 45.0433 224.112 45.0593 224.352 45.0593V47.5313H224.112C224.08 46.6993 223.752 46.1393 223.128 45.8513C222.504 45.5473 221.64 45.3953 220.536 45.3953C219.896 45.3953 219.368 45.5073 218.952 45.7313C218.552 45.9393 218.232 46.2033 217.992 46.5233C217.752 46.8273 217.584 47.1633 217.488 47.5313C217.408 47.8833 217.368 48.1953 217.368 48.4673C217.368 48.9153 217.464 49.2993 217.656 49.6193C217.864 49.9393 218.136 50.2193 218.472 50.4593C218.808 50.6993 219.192 50.9153 219.624 51.1073C220.072 51.2993 220.536 51.4833 221.016 51.6593C221.56 51.8673 222.112 52.0913 222.672 52.3313C223.232 52.5713 223.728 52.8673 224.16 53.2193C224.608 53.5713 224.968 54.0033 225.24 54.5153C225.528 55.0273 225.672 55.6513 225.672 56.3873Z" fill="white"/>
<path d="M126.267 0.135254L123.885 4.64926L121.58 9.16326C123.232 12.3327 124.692 15.0795 126.325 18.1913L131.069 9.16326L128.63 4.64926L126.267 0.135254Z" fill="#0C0B10"/>
<path d="M150.438 15.5213L150.207 15.3868L149.977 15.2332L149.727 15.0987L149.497 14.945L149.247 14.8106L149.016 14.6761L148.786 14.5417L148.536 14.4072L148.287 14.2727L148.056 14.1575L147.806 14.023L147.557 13.8886L147.326 13.7541L147.076 13.6389L146.827 13.5044L146.577 13.3891L146.327 13.2739L146.078 13.1586L145.828 13.0242L145.693 12.9666L143.484 17.7879L143.58 17.8263L143.811 17.9224L144.022 18.0376L144.253 18.1529L144.464 18.2489L144.675 18.3641L144.906 18.4794L145.117 18.5946L145.328 18.6907L145.54 18.8059L145.77 18.9404L145.981 19.0557L146.193 19.1709L146.404 19.2862L146.615 19.4014L146.827 19.5359L147.038 19.6511L147.249 19.7664L147.461 19.9008L147.672 20.0353L147.864 20.1505L150.63 15.6365L150.438 15.5213Z" fill="#0C0B10"/>
<path d="M140.119 10.8151L139.85 10.7383L139.581 10.6615L139.312 10.5654L139.043 10.4886L138.774 10.431L138.486 10.3541L138.217 10.2773L137.948 10.2005L137.68 10.1428L137.391 10.066L137.123 9.98916L136.854 9.93153L136.565 9.87391L136.297 9.81628L136.008 9.73945L135.739 9.68182L135.451 9.64341L135.182 9.58578L135.029 9.54736L134.068 14.7529L134.184 14.7721L134.433 14.8297L134.683 14.8681L134.914 14.9257L135.163 14.9834L135.413 15.041L135.663 15.0986L135.893 15.1563L136.143 15.1947L136.393 15.2715L136.623 15.3291L136.873 15.3868L137.123 15.4636L137.353 15.5212L137.584 15.5788L137.833 15.6557L138.064 15.7325L138.313 15.7901L138.544 15.867L138.794 15.9438L138.89 15.9822L140.484 10.9304L140.388 10.9112L140.119 10.8151Z" fill="#0C0B10"/>
<path d="M117.504 9.52824L117.216 9.58587L116.928 9.64349L116.659 9.68191L116.371 9.73954L116.102 9.81637L115.814 9.874L115.545 9.93162L115.257 9.98925L114.988 10.0661L114.719 10.1429L114.45 10.2005L114.162 10.2774L113.893 10.3542L113.624 10.431L113.355 10.4887L113.086 10.5655L112.817 10.6615L112.529 10.7384L112.279 10.8152L112.164 10.8536L113.758 15.9055L113.835 15.8671L114.085 15.7902L114.315 15.7326L114.546 15.6558L114.796 15.5789L115.045 15.5213L115.276 15.4637L115.526 15.3868L115.756 15.3292L116.006 15.2716L116.236 15.1948L116.486 15.1563L116.736 15.0987L116.985 15.0411L117.216 14.9835L117.466 14.9258L117.715 14.8682L117.965 14.8298L118.215 14.7722L118.445 14.7337L118.58 14.7145L117.619 9.50903L117.504 9.52824Z" fill="#0C0B10"/>
<path d="M106.841 12.9088L106.591 13.024L106.341 13.1585L106.091 13.2737L105.842 13.389L105.592 13.5042L105.342 13.6387L105.093 13.754L104.843 13.8884L104.612 14.0229L104.363 14.1573L104.113 14.2726L103.882 14.407L103.633 14.5415L103.402 14.676L103.153 14.8104L102.922 14.9449L102.672 15.0985L102.442 15.233L102.211 15.3867L102 15.5019L104.785 20.0159L104.958 19.9007L105.169 19.7662L105.361 19.651L105.573 19.5357L105.784 19.4013L105.995 19.286L106.226 19.1708L106.437 19.0555L106.648 18.9403L106.86 18.8058L107.071 18.6905L107.282 18.5945L107.513 18.4792L107.724 18.364L107.935 18.2487L108.166 18.1527L108.377 18.0375L108.608 17.9222L108.819 17.8262L109.05 17.7301L109.165 17.6725L106.956 12.8704L106.841 12.9088Z" fill="#0C0B10"/>
<path d="M126.921 98.8921L125.164 95.5616L123.463 92.2311C124.682 89.8926 125.759 87.866 126.963 85.5701L130.464 92.2311L128.664 95.5616L126.921 98.8921Z" fill="#0C0B10"/>
<path d="M144.566 87.5399L144.396 87.6391L144.226 87.7525L144.042 87.8517L143.872 87.965L143.687 88.0643L143.517 88.1635L143.347 88.2627L143.163 88.3619L142.979 88.4611L142.809 88.5461L142.624 88.6453L142.44 88.7445L142.27 88.8437L142.086 88.9288L141.902 89.028L141.717 89.113L141.533 89.198L141.349 89.2831L141.165 89.3823L141.065 89.4248L139.436 85.8675L139.506 85.8392L139.676 85.7683L139.832 85.6833L140.002 85.5983L140.158 85.5274L140.314 85.4424L140.484 85.3573L140.64 85.2723L140.796 85.2014L140.952 85.1164L141.122 85.0172L141.278 84.9322L141.434 84.8471L141.59 84.7621L141.746 84.6771L141.902 84.5778L142.057 84.4928L142.213 84.4078L142.369 84.3086L142.525 84.2094L142.667 84.1243L144.708 87.4548L144.566 87.5399Z" fill="#0C0B10"/>
<path d="M136.941 91.0124L136.742 91.0691L136.544 91.1258L136.346 91.1966L136.147 91.2533L135.949 91.2958L135.736 91.3525L135.538 91.4092L135.339 91.4659L135.141 91.5084L134.928 91.5651L134.73 91.6218L134.532 91.6643L134.319 91.7068L134.121 91.7493L133.908 91.806L133.71 91.8485L133.497 91.8769L133.299 91.9194L133.185 91.9478L132.477 88.107L132.562 88.0929L132.746 88.0503L132.93 88.022L133.1 87.9795L133.284 87.937L133.469 87.8945L133.653 87.8519L133.823 87.8094L134.007 87.7811L134.191 87.7244L134.361 87.6819L134.546 87.6393L134.73 87.5827L134.9 87.5401L135.07 87.4976L135.254 87.4409L135.424 87.3842L135.609 87.3417L135.779 87.285L135.963 87.2284L136.034 87.2L137.21 90.9273L137.139 90.9415L136.941 91.0124Z" fill="#0C0B10"/>
<path d="M120.756 91.9619L120.544 91.9194L120.331 91.8769L120.133 91.8485L119.92 91.806L119.722 91.7493L119.509 91.7068L119.311 91.6643L119.098 91.6218L118.9 91.5651L118.701 91.5084L118.503 91.4659L118.29 91.4092L118.092 91.3525L117.894 91.2958L117.695 91.2533L117.497 91.1966L117.298 91.1257L117.086 91.069L116.901 91.0124L116.816 90.984L117.993 87.2567L118.049 87.285L118.234 87.3417L118.404 87.3842L118.574 87.4409L118.758 87.4976L118.942 87.5401L119.112 87.5826L119.297 87.6393L119.467 87.6818L119.651 87.7244L119.821 87.781L120.005 87.8094L120.189 87.8519L120.374 87.8944L120.544 87.9369L120.728 87.9795L120.912 88.022L121.096 88.0503L121.281 88.0928L121.451 88.1212L121.55 88.1354L120.841 91.9761L120.756 91.9619Z" fill="#0C0B10"/>
<path d="M112.862 89.4675L112.678 89.3825L112.494 89.2833L112.31 89.1982L112.125 89.1132L111.941 89.0282L111.757 88.929L111.573 88.8439L111.389 88.7447L111.218 88.6455L111.034 88.5463L110.85 88.4613L110.68 88.3621L110.496 88.2629L110.326 88.1636L110.141 88.0644L109.971 87.9652L109.787 87.8519L109.617 87.7526L109.447 87.6393L109.291 87.5542L111.346 84.2237L111.474 84.3088L111.629 84.408L111.771 84.493L111.927 84.578L112.083 84.6772L112.239 84.7623L112.409 84.8473L112.565 84.9323L112.721 85.0174L112.877 85.1166L113.033 85.2016L113.188 85.2725L113.358 85.3575L113.514 85.4425L113.67 85.5276L113.84 85.5984L113.996 85.6835L114.166 85.7685L114.322 85.8394L114.492 85.9102L114.577 85.9528L112.947 89.4958L112.862 89.4675Z" fill="#0C0B10"/>
</svg>
