<svg width="215" height="114" viewBox="0 0 215 114" fill="none" xmlns="http://www.w3.org/2000/svg">
<path d="M126.481 45.2108V45.3559V45.5011V45.6462V45.7914L126.627 45.9365V46.0817V46.2268V46.372L126.774 46.5171V46.6623V46.8074V46.9526V47.0977V47.2429V47.3881H126.92V47.5332V47.6784L129.705 47.3881V47.2429V47.0977V46.9526V46.8074V46.6623L129.558 46.5171V46.372V46.2268V46.0817V45.9365V45.7914L129.412 45.6462V45.5011V45.3559V45.2108L129.265 45.0656V44.9205V44.7753V44.6302V44.485L129.119 44.3398L126.334 45.0656V45.2108H126.481Z" fill="#1D1D1B"/>
<path d="M128.092 41.2921V41.147V41.0018L127.945 40.8567V40.7115L127.799 40.5664V40.4212V40.2761L127.652 40.1309V39.9858H127.505V39.8406L127.359 39.6955V39.5503L127.212 39.4051V39.26V39.1148L127.066 38.9697V38.8245H126.919V38.6794L124.428 40.1309V40.2761L124.574 40.4212L124.721 40.5664V40.7115V40.8567L124.867 41.0018L125.014 41.147V41.2921V41.4373L125.161 41.5824V41.7276L125.307 41.8727V42.0179V42.1631H125.454V42.3082V42.4534L125.6 42.5985L128.238 41.4373L128.092 41.2921Z" fill="#1D1D1B"/>
<path d="M125.158 36.0664L125.012 35.9212V35.7761L124.865 35.6309L124.719 35.4858L124.572 35.3406V35.1955L124.425 35.0503H124.279V34.9052L124.132 34.76L123.986 34.6149L123.839 34.4697L123.693 34.3246V34.1794H123.546L123.4 34.0343V33.8891H123.253L121.201 35.7761V35.9212H121.348L121.494 36.0664V36.2115H121.641V36.3567L121.787 36.5019H121.934V36.647L122.081 36.7922L122.227 36.9373L122.374 37.0825V37.2276L122.52 37.3728L122.667 37.5179L122.813 37.6631L122.96 37.8082L125.305 36.2115L125.158 36.0664Z" fill="#1D1D1B"/>
<path d="M121.057 31.7124H120.91L120.764 31.5673L120.617 31.4221L120.47 31.277H120.324L120.177 31.1318L120.031 30.9866L119.884 30.8415H119.738L119.591 30.6963L119.445 30.5512H119.298L119.151 30.406L119.005 30.2609L118.858 30.1157H118.712L118.565 29.9706L117.1 32.4382L117.246 32.5833H117.393L117.539 32.7285L117.686 32.8736H117.832V33.0188H117.979L118.126 33.1639H118.272V33.3091H118.419L118.565 33.4543L118.712 33.5994L118.858 33.7446L119.005 33.8897H119.151V34.0349H119.298L121.057 31.8576V31.7124Z" fill="#1D1D1B"/>
<path d="M112.555 30.2613L112.701 30.4064H112.848L112.995 30.5516H113.141H113.288L113.434 30.6968H113.581L113.727 30.8419H113.874H114.02V30.9871H114.167H114.314L114.46 31.1322H114.607L115.926 28.5195H115.779H115.633L115.486 28.3743H115.339L115.193 28.2292H115.046H114.9L114.753 28.084H114.607H114.46V27.9388H114.314L114.167 27.7937H114.02H113.874L113.727 27.6485H113.581H113.434L113.288 27.5034H113.141H112.995L112.115 30.2613H112.262H112.408H112.555Z" fill="#1D1D1B"/>
<path d="M107.133 29.2446L107.28 29.3898H107.426H107.573H107.719H107.866H108.012H108.159H108.305H108.452H108.599L108.745 29.5349H108.892H109.038H109.185H109.331H109.478L110.064 26.777H109.918H109.771H109.624L109.478 26.6319H109.331H109.185H109.038H108.892H108.745H108.599L108.452 26.4867H108.305H108.159H108.012H107.866H107.719H107.573H107.426H107.28H107.133H106.986L106.84 29.2446H106.986H107.133Z" fill="#1D1D1B"/>
<path d="M145.676 45.3559V45.6462V45.7914V45.9365V46.2269V46.372V46.5172L145.529 46.8075V46.9526V47.2429V47.3881V47.6784L145.383 47.8235V48.1138H150.073V47.8235V47.5332L150.219 47.3881V47.0978V46.8075V46.5172V46.372V46.0817V45.7914L150.366 45.5011V45.3559L145.676 45.2108V45.3559Z" fill="#1D1D1B"/>
<path d="M144.947 36.7928V37.0831V37.3734L145.094 37.5186V37.8089V38.0992L145.24 38.2443V38.5346V38.8249V38.9701L145.387 39.2604V39.5507V39.6959V39.9862V40.2765L145.534 40.5668V40.7119V41.0022L150.077 40.5668V40.2765V39.9862V39.6959L149.93 39.4056V39.1152V38.9701V38.6798L149.784 38.3895V38.0992V37.8089V37.5186L149.637 37.2283V36.938V36.7928L149.491 36.5025V36.2122L149.344 35.9219V35.7767L144.801 36.7928H144.947Z" fill="#1D1D1B"/>
<path d="M142.158 28.5194L142.305 28.8097V28.9549L142.451 29.2452L142.598 29.3904V29.6807L142.744 29.8258L142.891 30.1161V30.2613L143.038 30.5516L143.184 30.6967V30.987L143.331 31.2773V31.4225L143.477 31.7128V31.858L143.624 32.1483V32.2934L143.77 32.5837L148.167 31.1322L148.02 30.987V30.6967L147.874 30.4064L147.727 30.1161V29.971L147.581 29.6807V29.3904L147.434 29.1L147.288 28.9549V28.6646L147.141 28.3743L146.995 28.084V27.9388L146.848 27.6485L146.701 27.3582L146.555 27.2131V26.9228L146.408 26.6324L142.158 28.5194Z" fill="#1D1D1B"/>
<path d="M137.766 21.117L137.912 21.4073L138.059 21.5525L138.205 21.6976L138.352 21.9879L138.498 22.1331L138.645 22.2782L138.792 22.5685L138.938 22.7137L139.085 22.8588L139.231 23.1491V23.2943L139.378 23.5846L139.524 23.7298L139.671 23.8749L139.817 24.1652L139.964 24.3104L140.111 24.4555V24.7458L144.068 22.4234V22.1331L143.921 21.9879L143.774 21.6976L143.628 21.5525L143.481 21.2622L143.335 20.9719L143.188 20.8267L143.042 20.5364L142.895 20.3912L142.749 20.1009L142.602 19.9558L142.455 19.6655L142.309 19.5203L142.162 19.23L142.016 19.0849L141.869 18.7946L141.576 18.6494L141.43 18.5043V18.3591L137.766 21.117Z" fill="#1D1D1B"/>
<path d="M132.047 15.021L132.34 15.3113L132.487 15.4565L132.633 15.6016L132.78 15.7468L132.926 15.892L133.219 16.0371L133.366 16.1823L133.513 16.3274L133.659 16.4726L133.806 16.7629L133.952 16.908L134.245 17.0532L134.392 17.1983L134.538 17.3435L134.685 17.4886L134.832 17.7789H134.978L138.349 14.7307L138.202 14.5856L138.056 14.4404L137.909 14.1501L137.616 14.005L137.47 13.8598L137.323 13.5695L137.03 13.4244L136.883 13.2792L136.737 13.134L136.59 12.8437L136.297 12.6986L136.151 12.5534L136.004 12.4083L135.711 12.118L135.564 11.9728L135.418 11.8277L135.125 11.6825L134.978 11.5374L134.832 11.3922L131.754 14.8759H131.9L132.047 15.021Z" fill="#1D1D1B"/>
<path d="M124.867 10.0848L125.014 10.23H125.307L125.454 10.3751L125.747 10.5203L125.893 10.6654L126.04 10.8106L126.333 10.9557H126.479L126.773 11.1009L126.919 11.2461L127.066 11.3912L127.359 11.5364L127.505 11.6815L127.798 11.8267L127.945 11.9718L128.092 12.117H128.385L130.876 8.343L130.73 8.19784L130.437 8.05269L130.29 7.90754L129.997 7.76238L129.85 7.61723L129.557 7.47208L129.411 7.32693L129.117 7.18177H128.971L128.678 7.03662L128.385 6.89147L128.238 6.74631L127.945 6.60116L127.798 6.45601L127.505 6.31086L127.212 6.1657L127.066 6.02055L126.773 5.8754L124.574 9.93968L124.867 10.0848Z" fill="#1D1D1B"/>
<path d="M116.953 6.89088H117.246L117.393 7.03604H117.686L117.979 7.18119H118.126L118.419 7.32634H118.565L118.859 7.4715H119.152L119.298 7.61665L119.591 7.7618H119.738L120.031 7.90695H120.178L120.471 8.05211H120.617L122.376 3.84267H122.083L121.936 3.69752L121.643 3.55237H121.35L121.057 3.40721L120.91 3.26206H120.617L120.324 3.11691H120.031L119.884 2.97176L119.591 2.8266H119.298L119.005 2.68145H118.859L118.565 2.5363H118.272L117.979 2.39114H117.686L116.514 6.74573H116.807L116.953 6.89088Z" fill="#1D1D1B"/>
<path d="M108.453 5.43982H108.6H108.893H109.186H109.479H109.626H109.919L110.212 5.58497H110.359H110.652H110.945H111.091L111.385 5.73012H111.678H111.971H112.117L112.264 5.87527L112.997 1.37553L112.85 1.23038H112.557H112.264H112.117L111.824 1.08523H111.531H111.238H110.945L110.652 0.940075H110.359H110.066H109.772H109.479L109.186 0.794922H109.04H108.747H108.453H108.16L107.867 5.29466L108.16 5.43982H108.453Z" fill="#1D1D1B"/>
<path d="M136.297 45.7919V45.9371L136.443 46.2274V46.3725V46.5177V46.808V46.9532V47.0983V47.3886L136.59 47.5338V47.6789V47.9692V48.1144H140.547V47.8241V47.6789V47.3886V47.2435V46.9532V46.808V46.5177L140.4 46.3725V46.0822V45.9371V45.6468V45.5016L140.254 45.2113V45.0662V44.921L136.297 45.6468V45.7919Z" fill="#1D1D1B"/>
<path d="M134.393 38.6804V38.9707L134.539 39.1158V39.261L134.686 39.4062V39.5513L134.832 39.8416V39.9868L134.979 40.1319V40.2771V40.4222L135.125 40.7125V40.8577L135.272 41.0028V41.148V41.4383L135.419 41.5834V41.7286V41.8738L139.376 40.8577V40.5674L139.229 40.4222V40.1319L139.082 39.9868V39.8416L138.936 39.5513V39.4062L138.789 39.261V38.9707L138.643 38.8255V38.5352V38.3901L138.496 38.2449L138.35 37.9546V37.8095L138.203 37.6643V37.374L138.057 37.2289V37.0837L137.91 36.7934L134.246 38.3901V38.5352L134.393 38.6804Z" fill="#1D1D1B"/>
<path d="M130.582 32.1479L130.729 32.293L130.875 32.4382L131.022 32.5833V32.7285L131.168 32.8736L131.315 33.0188V33.1639L131.461 33.3091L131.608 33.4542L131.755 33.5994V33.8897L131.901 34.0348L132.048 34.18V34.3251L132.194 34.4703L132.341 34.6154V34.7606L132.487 34.9058V35.0509L136.005 33.0188V32.8736L135.858 32.7285L135.712 32.5833V32.4382L135.565 32.1479L135.418 32.0027L135.272 31.8575L135.125 31.7124V31.4221L134.979 31.2769L134.832 31.1318L134.686 30.9866V30.8415L134.539 30.6963L134.393 30.406L134.246 30.2609L134.099 30.1157L133.953 29.9706V29.8254L133.806 29.6802L133.66 29.5351L130.436 31.8575L130.582 32.0027V32.1479Z" fill="#1D1D1B"/>
<path d="M130.729 26.1971L130.583 26.0519L130.436 25.9068L130.29 25.7616L130.143 25.6165L129.997 25.4713L129.85 25.3262L129.703 25.181L129.557 25.0359L129.41 24.8907L129.264 24.7456L129.117 24.6004L128.971 24.4552L128.824 24.3101L128.678 24.1649L128.531 24.0198L128.384 23.8746L128.238 23.7295L127.945 23.5843L127.798 23.4392L125.16 26.4874L125.307 26.6325L125.453 26.7777H125.6L125.746 26.9228L125.893 27.068L126.039 27.2132L126.186 27.3583L126.333 27.5035H126.479L126.626 27.6486V27.7938L126.772 27.9389L126.919 28.0841L127.065 28.2292L127.212 28.3744H127.359L127.505 28.5195L127.652 28.6647L127.798 28.8098L127.945 28.955V29.1001L130.876 26.1971H130.729Z" fill="#1D1D1B"/>
<path d="M122.08 19.6644H121.933L121.64 19.5192L121.494 19.3741H121.347L121.2 19.2289L120.907 19.0838H120.761L120.614 18.9386H120.468L118.709 22.5675H118.856L119.002 22.7126H119.149L119.295 22.8578H119.588L119.735 23.0029L119.881 23.1481H120.028L120.175 23.2932H120.321L120.468 23.4384L120.614 23.5835H120.907L121.054 23.7287H121.2L121.347 23.8738L121.494 24.019H121.64L121.787 24.1641L121.933 24.3093H122.08L124.278 20.9708L124.132 20.8256L123.838 20.6805H123.692L123.545 20.5353L123.399 20.3902H123.252L122.959 20.245L122.813 20.0999L122.666 19.9547H122.373L122.226 19.8095L122.08 19.6644Z" fill="#1D1D1B"/>
<path d="M112.702 16.4717L112.409 16.3266H112.262L111.529 20.2457H111.676L111.822 20.3908H112.116H112.262H112.409L112.555 20.536H112.848H112.995L113.141 20.6812H113.288H113.581L113.728 20.8263H113.874H114.021L114.314 20.9715H114.46H114.607L114.754 21.1166H115.047H115.193V21.2618L116.512 17.3426H116.366H116.219L115.926 17.1975H115.779L115.633 17.0523H115.34H115.193L114.9 16.9072H114.754H114.607L114.314 16.762H114.167L113.874 16.6169H113.728H113.435L113.288 16.4717H113.141H112.848H112.702Z" fill="#1D1D1B"/>
<path d="M112.554 97.467L112.261 97.7573L112.115 98.0476L111.968 98.1928L111.675 98.4831L111.528 98.7734L111.382 98.9185L111.089 99.2089L110.942 99.4992L110.649 99.6443L110.502 99.9346L110.356 100.08L110.209 100.37L109.916 100.66L109.77 100.806L109.623 101.096L113.14 103.854L113.287 103.709L113.58 103.418L113.727 103.273L113.873 102.983L114.166 102.838L114.313 102.547L114.459 102.257L114.753 102.112L114.899 101.822L115.046 101.676L115.339 101.386L115.485 101.096L115.632 100.951L115.925 100.66L116.072 100.37L112.554 97.467Z" fill="#1D1D1B"/>
<path d="M118.269 90.6447L117.976 90.935L117.829 91.0802L117.536 91.3705L117.39 91.6608L117.097 91.9511L116.95 92.2414L116.657 92.3865L116.51 92.6768L116.364 92.9671L116.071 93.2575L115.924 93.5478L115.631 93.6929L115.484 93.9832L119.002 96.8863L119.148 96.596L119.441 96.4508L119.588 96.1605L119.881 95.8702L120.028 95.5799L120.321 95.4347L120.467 95.1444L120.76 94.8541L120.907 94.5638L121.2 94.2735L121.347 94.1284L121.64 93.8381L121.786 93.5478L121.933 93.4026L118.416 90.3544L118.269 90.6447Z" fill="#1D1D1B"/>
<path d="M105.814 22.8583C107.133 20.3907 108.013 18.6489 109.478 16.0361L107.719 12.5525L105.961 9.21396L104.056 12.6976L102.297 16.1813C103.469 18.5037 104.642 20.5359 105.814 22.8583Z" fill="#1D1D1B"/>
<path d="M83.3881 12.1159H83.5347L83.6812 11.9707L83.9743 11.8256L84.1209 11.6804L84.414 11.5353L84.5606 11.3901L84.7071 11.245L85.0002 11.0998L85.1468 10.9547H85.2933L85.5865 10.8095L85.733 10.6644L86.0261 10.5192L86.1727 10.3741L86.4658 10.2289H86.6124L86.7589 10.0838H86.9055L84.7071 6.01947H84.5606L84.414 6.16462L84.1209 6.30978L83.9743 6.45493L83.6812 6.60008L83.3881 6.74523L83.2415 6.89039L82.9484 7.03554L82.8019 7.18069H82.5088L82.3622 7.32585L82.0691 7.471L81.9225 7.61615L81.6294 7.76131L81.3363 7.90646L81.1897 8.05161L80.8966 8.19676L80.7501 8.34192L80.6035 8.48707L83.2415 12.261L83.3881 12.1159Z" fill="#1D1D1B"/>
<path d="M91.8896 34.3252H92.0362L92.1827 34.18L92.3293 34.0349H92.4758V33.8897H92.6224L92.769 33.7446H92.9155V33.5994L93.0621 33.4543H93.2086V33.3091H93.3552L93.5017 33.164L93.6483 33.0188H93.7949L93.9414 32.8737L94.088 32.7285L92.4758 30.4061L92.3293 30.5512H92.1827V30.6964H92.0362L91.8896 30.8415H91.7431L91.5965 30.9867V31.1318H91.4499L91.3034 31.277H91.1568L91.0103 31.4221V31.5673H90.8637L90.7172 31.7124H90.5706V31.8576L90.424 32.0027H90.2775L90.1309 32.1479V32.2931H89.9844L91.8896 34.4703V34.3252Z" fill="#1D1D1B"/>
<path d="M89.8409 24.1652L89.9875 24.0201H90.1341L90.2806 23.8749L90.4272 23.7298H90.7203L90.8668 23.5846H91.0134L91.16 23.4395L91.3065 23.2943H91.4531L91.5996 23.1492H91.7462L92.0393 23.004L92.1859 22.8589H92.3324L92.479 22.7137H92.6255L92.7721 22.5686H92.9186L93.0652 22.4234L91.4531 18.7946L91.3065 18.9397H91.16L90.8668 19.0849H90.7203L90.5737 19.23L90.2806 19.3752H90.1341L89.9875 19.5204L89.8409 19.6655H89.5478L89.4013 19.8107L89.2547 19.9558H89.1082L88.815 20.101L88.6685 20.2461L88.5219 20.3913H88.3754L88.0822 20.5364L87.9357 20.6816H87.7891L87.6426 20.8267L89.6944 24.3104L89.8409 24.1652Z" fill="#1D1D1B"/>
<path d="M71.5196 24.7464L71.6662 24.4561V24.3109L71.8127 24.1658L71.9593 23.8755L72.1058 23.7303L72.2524 23.5852L72.399 23.2949L72.5455 23.1497L72.6921 22.8594L72.8386 22.7143V22.5691L72.9852 22.2788L73.1317 22.1336L73.2783 21.9885L73.4249 21.6982L73.5714 21.553L73.718 21.4079L73.8645 21.2627L70.054 18.5048V18.65L69.9075 18.7951L69.7609 19.0854L69.6144 19.2306L69.4678 19.5209L69.3213 19.666L69.0281 19.9564L68.8816 20.1015L68.735 20.3918L68.5885 20.537L68.4419 20.8273L68.2954 20.9724L68.1488 21.2627L68.0022 21.553V21.6982L67.8557 21.9885L67.7091 22.1336L67.5626 22.4239L67.416 22.5691L71.3731 24.8915L71.5196 24.7464Z" fill="#1D1D1B"/>
<path d="M76.6482 17.923L76.7947 17.7778L76.9413 17.4875L77.0878 17.3424L77.2344 17.1972L77.5275 17.0521L77.6741 16.9069L77.8206 16.7618L77.9672 16.4715L78.1137 16.3263L78.2603 16.1811L78.5534 16.036L78.7 15.8908L78.8465 15.7457L78.9931 15.6005L79.1396 15.4554L79.4327 15.3102L79.5793 15.0199L79.7259 14.8748L76.7947 11.5363H76.6482L76.5016 11.6814L76.355 11.8266L76.0619 11.9717L75.9154 12.1169L75.7688 12.4072L75.4757 12.5523L75.3291 12.6975L75.1826 12.8426L74.8895 13.1329L74.7429 13.2781L74.5964 13.4232L74.4498 13.5684L74.1567 13.8587L74.0101 14.0039L73.8636 14.149L73.5705 14.4393L73.4239 14.5845L73.2773 14.7296V14.8748L76.6482 17.923Z" fill="#1D1D1B"/>
<path d="M83.9761 28.8093V28.6641L84.1227 28.519L84.2693 28.3738H84.4158L84.5624 28.2287L84.7089 28.0835L84.8555 27.9384L85.002 27.7932L85.1486 27.648L85.2952 27.5029H85.4417L85.5883 27.3577L85.7348 27.2126L85.8814 27.0674V26.9223L86.0279 26.7771H86.1745L86.3211 26.632L86.4676 26.4868L86.6142 26.3417L84.1227 23.2935L83.9761 23.4386H83.8296L83.683 23.5838L83.5365 23.7289L83.3899 23.8741L83.2434 24.0192L83.0968 24.1644L82.8037 24.3095L82.6571 24.4547L82.5106 24.5998L82.364 24.745L82.2174 24.8901L82.0709 25.0353L81.9243 25.1804L81.7778 25.3256L81.6312 25.4708L81.4847 25.6159L81.3381 25.7611L81.1916 25.9062L81.045 26.0514H80.8984L83.8296 28.9544L83.9761 28.8093Z" fill="#1D1D1B"/>
<path d="M91.0127 8.19726L91.1592 8.05211L91.4523 7.90695H91.5989L91.892 7.7618H92.1851L92.3317 7.61665L92.6248 7.4715H92.7714L93.0645 7.32634H93.211L93.5041 7.18119H93.7973L93.9438 7.03604H94.2369L94.3835 6.89088H94.6766L94.9697 6.74573L93.7973 2.39114H93.6507L93.3576 2.5363H93.0645L92.9179 2.68145H92.6248L92.3317 2.8266H92.0386L91.892 2.97176L91.5989 3.11691H91.3058L91.0127 3.26206H90.8661L90.573 3.40721L90.2799 3.55237H89.9868L89.8402 3.69752L89.5471 3.84267H89.254L89.1074 3.98783L90.8661 8.19726H91.0127Z" fill="#1D1D1B"/>
<path d="M99.2191 5.87527L99.5122 5.73012H99.8053H99.9519H100.245L100.538 5.58497H100.685H100.978H101.271H101.564L101.711 5.43982H102.004H102.297H102.443H102.736H103.03H103.323H103.469H103.616L103.323 0.794922H103.03H102.736H102.443L102.15 0.940075H101.857H101.564H101.271H100.978L100.685 1.08523H100.392H100.098H99.9519L99.6588 1.23038H99.3657H99.0726H98.7794L98.4863 1.37553L99.2191 5.87527Z" fill="#1D1D1B"/>
<path d="M101.713 29.6801H101.86H102.006L102.153 29.5349H102.3H102.446H102.593H102.739H102.886L103.032 29.3898H103.179H103.325H103.472H103.619H103.765H103.912H104.058H104.205L103.912 26.4867H103.765H103.619H103.472H103.325H103.179L103.032 26.6319H102.886H102.739H102.593H102.446H102.3H102.153L102.006 26.777H101.86H101.713H101.567H101.42H101.274L101.127 26.9222H100.981H100.834L101.567 29.6801H101.713Z" fill="#1D1D1B"/>
<path d="M96.7272 21.1166H96.8738L97.0203 20.9715H97.1669H97.46L97.6066 20.8263H97.7531H97.8997L98.1928 20.6812H98.3393H98.4859L98.6325 20.536H98.9256H99.0721L99.2187 20.3909H99.3653H99.6584H99.8049L99.9515 20.2457H100.245L99.5118 16.3266H99.2187L99.0721 16.4717H98.779H98.6325H98.3393L98.1928 16.6169H97.8997H97.7531L97.6066 16.762H97.3135L97.1669 16.9072H96.8738H96.7272L96.4341 17.0523H96.2875H96.141L95.8479 17.1975H95.7013L95.4082 17.3426L96.5807 21.1166H96.7272Z" fill="#1D1D1B"/>
<path d="M61.4082 46.0823V46.3726V46.5177V46.808V47.0983L61.5548 47.3886V47.5338V47.8241V48.1144H66.2446V47.8241V47.679L66.098 47.3886V47.2435V46.9532V46.808V46.6629V46.3726V46.2274L65.9515 45.9371V45.792V45.6468V45.3565L61.4082 45.6468V45.792V46.0823Z" fill="#1D1D1B"/>
<path d="M96.4362 31.422H96.5828V31.2768H96.7293H96.8759L97.0224 31.1317H97.169L97.3155 30.9865H97.4621H97.6087L97.7552 30.8414H97.9018L98.0483 30.6962H98.1949H98.3414L98.488 30.5511H98.6346L98.7811 30.4059H98.9277L97.9018 27.7932H97.7552H97.6087L97.4621 27.9383H97.3155L97.169 28.0835H97.0224H96.8759L96.7293 28.2286H96.5828H96.4362L96.2896 28.3738H96.1431L95.9965 28.5189H95.85L95.7034 28.6641H95.5569L95.4103 28.8092H95.2637L95.1172 28.9544L96.4362 31.422Z" fill="#1D1D1B"/>
<path d="M86.7621 35.6315V35.7767L86.6155 35.9218L86.469 36.067L86.3224 36.2121V36.3573L86.1759 36.5024V36.6476H86.0293V36.7927L88.3742 38.3894L88.5208 38.2442V38.0991L88.6673 37.9539L88.8139 37.8088V37.6636H88.9604V37.5185L89.107 37.3733L89.2536 37.2282V37.083L89.4001 36.9379H89.5467V36.7927H89.6932V36.6476L89.8398 36.5024L89.9864 36.3573L87.788 34.4703V34.6154H87.6414L87.4949 34.7606V34.9057L87.3483 35.0509H87.2018V35.196L87.0552 35.3412L86.9086 35.4863L86.7621 35.6315Z" fill="#1D1D1B"/>
<path d="M85.8842 43.0343L86.0308 42.8891V42.744L86.1773 42.5988V42.4537V42.3085L86.3239 42.1634V42.0182L86.4704 41.8731V41.7279V41.5827H86.617V41.4376V41.2924L86.7635 41.1473V41.0021H86.9101V40.857V40.7118L84.4186 39.4055L84.2721 39.5506V39.6958L84.1255 39.8409V39.9861L83.979 40.1312V40.2764L83.8324 40.4215V40.5667V40.7118L83.6858 40.857V41.0021L83.5393 41.1473V41.2924V41.4376L83.3927 41.5827V41.7279L83.2462 41.8731V42.0182L83.0996 42.1634L85.8842 43.1794V43.0343Z" fill="#1D1D1B"/>
<path d="M101.566 101.386L101.419 101.096L101.273 100.806L100.979 100.66L100.833 100.37L100.686 100.225L100.393 99.9346L100.247 99.6443L100.1 99.4992L99.9535 99.2089L99.6604 98.9186L99.5138 98.7734L99.3673 98.4831L99.0742 98.1928L98.9276 98.0476L98.781 97.9025L95.2637 100.806L95.5568 101.096L95.7033 101.386L95.8499 101.531L96.143 101.822L96.2896 102.112L96.4361 102.257L96.7292 102.547L96.8758 102.838L97.0224 102.983L97.3155 103.273L97.462 103.418L97.6086 103.709L97.7551 103.999L98.0483 104.144V104.289L101.712 101.531L101.566 101.386Z" fill="#1D1D1B"/>
<path d="M95.8489 94.2736L95.5558 93.9832L95.4092 93.6929L95.2627 93.5478L94.9696 93.2575L94.823 92.9672L94.5299 92.6769L94.3833 92.5317L94.0902 92.2414L93.9437 91.9511L93.6506 91.6608L93.504 91.3705L93.3574 91.2253L93.0643 90.935V90.7899L89.4004 93.6929L89.5469 93.8381L89.6935 93.9832L89.9866 94.2736L90.1332 94.5639L90.2797 94.8542L90.5728 95.1445L90.7194 95.2896L91.0125 95.5799L91.1591 95.8702L91.4522 96.1605L91.5987 96.4509L91.8919 96.596L92.0384 96.8863L92.185 97.1766H92.3315L95.8489 94.4187V94.2736Z" fill="#1D1D1B"/>
<path d="M66.098 41.0028L66.2445 40.7125V40.5673V40.277V39.9867V39.6964L66.3911 39.5513V39.261V38.9707V38.8255V38.5352L66.5376 38.2449V38.0997V37.8094L66.6842 37.5191V37.374V37.0837L66.8307 36.9385L62.2875 35.9225L62.1409 36.2128V36.5031V36.7934L61.9944 36.9385V37.2288V37.5191L61.8478 37.8094V38.0997V38.3901V38.6804L61.7012 38.9707V39.1158V39.4061V39.6964L61.5547 39.9867V40.277V40.5673V40.7125L66.098 41.148V41.0028Z" fill="#1D1D1B"/>
<path d="M100.979 107.918L101.125 108.063L105.815 113.724L110.651 107.918L105.815 103.563L100.979 107.918Z" fill="#1D1D1B"/>
<path d="M105.815 90.3544L103.763 92.9672L101.711 95.5799L103.763 98.3378L105.815 100.951L107.866 98.3378L109.918 95.5799L107.866 92.9672L105.961 90.3544H105.815Z" fill="#1D1D1B"/>
<path d="M71.3732 44.7753V45.0656V45.2108V45.5011L71.2266 45.6462V45.9365V46.0817V46.372V46.5171V46.8074L71.0801 46.9526V47.2429V47.388V47.6784V47.8235V48.1138H75.0371L75.1837 47.9687V47.6784V47.5332V47.388V47.0977V46.9526V46.8074V46.5171L75.3302 46.372V46.2268V45.9365V45.7914V45.6462L75.4768 45.3559L71.3732 44.7753Z" fill="#1D1D1B"/>
<path d="M67.8576 32.5843L68.0042 32.2939V32.1488L68.1508 31.8585V31.7133L68.2973 31.423L68.4439 31.2779V30.9876L68.5904 30.6973V30.5521L68.737 30.2618L68.8836 30.1167V29.8263L69.0301 29.6812V29.3909L69.1767 29.2457L69.3232 28.9554V28.8103L69.4698 28.6651L65.2196 26.7781V26.9233L65.0731 27.2136L64.9265 27.3587L64.78 27.6491V27.9394L64.6334 28.0845L64.4868 28.3748V28.6651L64.3403 28.9554L64.1937 29.1006V29.3909L64.0472 29.6812L63.9006 29.9715V30.1167L63.7541 30.407V30.6973L63.6075 30.9876L63.4609 31.1327V31.2779L67.8576 32.7294V32.5843Z" fill="#1D1D1B"/>
<path d="M79.2869 34.76L79.4335 34.6149V34.4697L79.58 34.3246L79.7266 34.1794V34.0343L79.8731 33.8891L80.0197 33.5988V33.4537L80.1662 33.3085L80.3128 33.1633L80.4594 33.0182V32.873L80.6059 32.7279L80.7525 32.5827V32.4376L80.899 32.2924L81.0456 32.1473L81.1921 32.0021V31.857L81.3387 31.7118L78.1144 29.3894H77.9679V29.6797L77.8213 29.8248L77.6748 29.97L77.5282 30.1151L77.3817 30.2603L77.2351 30.4054V30.6957L77.0885 30.8409L76.942 30.9861L76.7954 31.1312L76.6489 31.2764V31.4215L76.5023 31.7118L76.3558 31.857L76.2092 32.0021V32.1473L76.0626 32.4376L75.9161 32.5827L75.7695 32.7279V32.873L79.2869 34.9052V34.76Z" fill="#1D1D1B"/>
<path d="M76.2109 41.7281L76.3574 41.5829V41.4377V41.1474L76.504 41.0023V40.8571L76.6505 40.712V40.4217V40.2765L76.7971 40.1314V39.9862L76.9437 39.8411V39.5508L77.0902 39.4056V39.2605V39.1153L77.2368 38.9701V38.6798L77.3833 38.5347V38.3895L77.5299 38.2444L73.866 36.6477L73.7194 36.7929L73.5728 37.0832V37.2283L73.4263 37.3735V37.6638L73.2797 37.8089V37.9541L73.1332 38.2444V38.3895L72.9866 38.5347V38.825L72.8401 38.9701V39.2605L72.6935 39.4056V39.5508L72.5469 39.8411V39.9862V40.1314L72.4004 40.4217V40.5668V40.712L76.2109 41.7281Z" fill="#1D1D1B"/>
<path d="M84.7104 47.9698V47.8247L84.8569 47.6795V47.5343V47.3892V47.244V47.0989V46.9537V46.8086L85.0035 46.6634V46.5183V46.3731V46.228V46.0828L85.15 45.9377V45.7925V45.6474L82.3655 45.0667V45.2119L82.2189 45.357V45.5022V45.6474V45.7925V45.9377L82.0723 46.0828V46.228V46.3731V46.5183V46.6634V46.8086L81.9258 46.9537V47.0989V47.244V47.3892V47.5343V47.6795V47.8247V47.9698V48.115H84.7104V47.9698Z" fill="#1D1D1B"/>
<path d="M212.654 69.7417L202.835 62.1938C201.516 61.1777 200.929 59.8713 200.929 58.565C200.929 55.2265 204.007 53.7749 206.938 53.7749C209.723 53.7749 212.361 54.791 212.361 57.9844H212.947L212.8 52.7589H211.188C209.869 52.4685 208.404 52.3234 206.645 52.3234C203.714 52.3234 200.929 53.3395 199.317 55.8071C197.559 58.565 198.145 62.4841 200.636 64.6614L210.456 72.0642C211.628 73.0803 212.214 74.3866 212.214 75.9833C212.214 79.7573 208.697 81.354 205.326 81.354C201.222 81.354 198.291 78.7412 198.878 74.5318H198.291C197.852 75.693 197.705 76.9994 197.705 78.1606C197.705 79.3218 197.705 80.1928 197.852 80.4831C199.757 82.2249 203.714 82.8055 206.352 82.8055C210.895 82.8055 214.999 79.6121 214.999 74.9673C214.999 72.6448 214.119 70.903 212.654 69.7417Z" fill="#1D1D1B"/>
<path d="M162.387 80.7728C161.801 80.3374 161.361 79.6116 161.361 78.8859V55.9517C161.361 55.2259 161.801 54.6453 162.387 54.2099C163.266 53.4841 164.145 53.4841 165.318 53.4841V53.0486H154.326V53.4841C155.499 53.4841 156.378 53.4841 157.257 54.2099C157.844 54.7905 158.283 55.3711 158.283 56.0969V78.8859C158.283 80.4825 156.525 81.4986 155.059 81.4986H154.326V81.9341H165.465V81.4986C164.145 81.4986 163.266 81.4986 162.387 80.7728Z" fill="#1D1D1B"/>
<path d="M146.41 78.0161C145.677 77.2903 144.798 76.1291 143.625 74.6775C142.453 73.226 141.867 72.5002 141.867 72.5002C140.401 70.4681 139.082 69.1617 138.056 68.7263C142.599 68.2908 145.677 64.9523 145.677 60.4525C145.677 54.9367 140.548 52.9046 135.711 52.9046H123.4V53.3401H124.133C125.599 53.3401 126.918 54.3561 126.918 55.8077V78.7418C126.918 79.4676 126.625 80.0482 126.038 80.6288C125.159 81.3546 124.426 81.3546 123.4 81.3546V81.79H133.366V81.3546C132.633 81.3546 132.047 81.3546 131.314 81.0643C130.435 80.4837 129.995 79.7579 129.995 78.7418V54.5013H132.633C135.272 54.5013 138.203 54.3561 140.401 56.2431C142.746 58.4204 142.599 62.4847 140.987 65.0974C140.548 65.6781 139.815 66.2587 138.789 66.8393C138.056 67.2747 135.711 67.4199 131.901 67.4199V67.8554C134.978 67.8554 137.47 72.0648 139.229 74.3872C140.987 76.8548 142.16 78.887 144.798 80.6288C146.996 82.2255 149.781 82.0803 152.419 82.0803V81.6449C149.488 81.4997 148.022 79.903 146.41 78.0161Z" fill="#1D1D1B"/>
<path d="M120.03 53.3397V47.2433C119.737 47.3885 119.15 47.5336 118.124 47.8239C117.099 48.1142 115.78 48.2594 114.167 48.2594H97.6064C95.9943 48.2594 93.2097 47.9691 91.7441 47.3885V53.4849H92.1838V52.614C92.1838 51.0173 93.3563 49.7109 94.9684 49.7109H104.202V78.7415C104.202 79.6124 103.908 80.193 103.176 80.7736C102.296 81.6446 101.563 81.6446 100.391 81.6446V82.08H111.09V81.6446H110.503C108.745 81.6446 107.426 80.3382 107.426 78.5963V49.5658H116.659C118.271 49.5658 119.443 50.8721 119.443 52.4688V53.3397H120.03Z" fill="#1D1D1B"/>
<path d="M182.172 52.9046H170.74V53.3401H171.473C172.939 53.3401 174.258 54.3561 174.258 55.9528V78.887C174.258 79.6127 173.964 80.1934 173.378 80.774C172.499 81.4997 171.766 81.4997 170.74 81.4997V81.9352H180.853V81.4997C180.12 81.4997 179.534 81.4997 178.801 81.2094C177.922 80.774 177.482 79.903 177.335 78.887V54.3561H182.025C186.129 54.3561 189.793 56.2431 189.793 60.7429C189.793 61.9041 189.646 62.775 189.5 63.3556C188.913 65.0974 187.887 66.549 186.422 67.2747C184.517 68.5811 181.439 68.7263 179.241 68.1457V68.5811C180.853 69.3069 182.611 69.7423 184.37 69.7423C189.646 69.7423 193.31 66.2587 193.31 61.0332C193.31 55.0819 187.448 52.9046 182.172 52.9046Z" fill="#1D1D1B"/>
<path d="M107.278 85.2737C107.278 83.8222 106.252 83.3867 104.787 84.1125C93.5019 90.0637 84.1223 80.3385 75.7685 66.6941L83.6826 55.8077C84.2688 55.0819 85.0016 54.5013 85.7344 54.0658C86.9069 53.3401 87.7862 53.3401 88.9587 53.3401V52.9046H78.1134V53.3401C78.8462 53.3401 79.579 53.3401 80.1652 54.0658C80.6049 54.6464 80.898 55.227 80.3118 55.9528L74.4495 64.8071L68.2941 55.9528C67.8544 55.227 68.001 54.7916 68.4406 54.0658C68.8803 53.3401 69.7597 53.3401 70.4924 53.3401V52.9046H59.061V53.3401H59.6472C61.4059 53.3401 63.3111 54.3561 64.337 55.8077L72.5442 67.565L63.4577 79.1773C61.8456 81.0643 60.5266 81.4997 58.1816 81.4997V81.9352H68.8803V81.4997C68.1475 81.4997 67.2682 81.4997 66.8285 80.774C66.3888 80.0482 66.0957 79.4676 66.682 78.7418L73.8633 69.1617C87.7862 89.1928 107.425 90.7895 107.278 85.2737Z" fill="#1D1D1B"/>
<path d="M13.9229 80.4834H6.88819V51.598C6.88819 51.0173 7.03474 50.5819 7.32786 50.0013C8.2072 48.5498 9.2331 48.5498 10.6987 48.5498V48.1143H0V48.5498H0.586229C2.34491 48.5498 3.66393 49.8561 3.66393 51.598V78.4513C3.66393 80.1931 2.19836 81.4995 0.586229 81.4995H0V81.9349H20.2249L23.0095 74.0967H22.5698C20.9577 78.3061 18.6128 80.4834 13.9229 80.4834Z" fill="#1D1D1B"/>
<path d="M48.6594 53.4841H49.3922C50.7112 53.4841 51.7371 54.355 51.7371 55.5162V71.7734C51.7371 77.7246 47.9266 81.3535 41.9178 81.3535C35.6158 81.3535 32.6847 77.144 32.6847 71.1928V55.5162C32.6847 54.9356 32.9778 54.5002 33.4175 54.0647C34.1503 53.339 34.8831 53.4841 35.7624 53.4841V53.0486H26.5293V53.4841C27.4086 53.4841 28.1414 53.4841 28.8742 54.0647C29.3139 54.5002 29.607 54.9356 29.607 55.5162V71.7734C29.607 79.031 34.8831 82.6598 41.7712 82.6598C48.6594 82.6598 53.9355 79.031 53.9355 71.7734V55.5162C53.9355 55.0808 54.0821 54.7905 54.2286 54.5002C54.9614 53.4841 55.8407 53.4841 57.0132 53.4841V53.0486H48.6594V53.4841Z" fill="#1D1D1B"/>
</svg>
