<svg width="330" height="100" viewBox="0 0 330 100" fill="none" xmlns="http://www.w3.org/2000/svg">
<path fill-rule="evenodd" clip-rule="evenodd" d="M123.082 17.7949H55.5C38.6553 17.7949 25 31.4502 25 48.2949C25 65.1396 38.6553 78.7949 55.5 78.7949H123.082V77.7949H55.5C39.2076 77.7949 26 64.5873 26 48.2949C26 32.0025 39.2076 18.7949 55.5 18.7949H123.082V17.7949ZM208.531 77.7949H274.5C290.792 77.7949 304 64.5873 304 48.2949C304 32.0025 290.792 18.7949 274.5 18.7949H208.531V17.7949H274.5C291.345 17.7949 305 31.4502 305 48.2949C305 65.1396 291.345 78.7949 274.5 78.7949H208.531V77.7949Z" fill="white"/>
<rect y="26.7949" width="330" height="55" rx="27.5" fill="white"/>
<path d="M119.214 59.0469C119.214 59.8469 119.054 60.5349 118.734 61.1109C118.414 61.6709 117.998 62.1269 117.486 62.4789C116.99 62.8309 116.422 63.0869 115.782 63.2469C115.158 63.4069 114.534 63.4869 113.91 63.4869C113.27 63.4869 112.718 63.4229 112.254 63.2949C111.79 63.1669 111.366 63.0469 110.982 62.9349C110.726 62.8549 110.494 62.7909 110.286 62.7429C110.078 62.6789 109.87 62.6469 109.662 62.6469V59.9109H109.902C109.902 60.5189 110.054 61.0069 110.358 61.3749C110.678 61.7269 111.046 61.9989 111.462 62.1909C111.878 62.3829 112.294 62.5109 112.71 62.5749C113.126 62.6229 113.43 62.6469 113.622 62.6469C114.31 62.6469 114.902 62.5509 115.398 62.3589C115.894 62.1509 116.302 61.8869 116.622 61.5669C116.942 61.2309 117.174 60.8629 117.318 60.4629C117.478 60.0629 117.558 59.6549 117.558 59.2389C117.558 58.7109 117.446 58.2709 117.222 57.9189C116.998 57.5509 116.702 57.2309 116.334 56.9589C115.982 56.6869 115.574 56.4549 115.11 56.2629C114.646 56.0709 114.174 55.8789 113.694 55.6869C113.15 55.4789 112.614 55.2629 112.086 55.0389C111.558 54.8149 111.086 54.5429 110.67 54.2229C110.254 53.8869 109.918 53.4949 109.662 53.0469C109.406 52.5829 109.278 52.0149 109.278 51.3429C109.278 50.6389 109.414 50.0309 109.686 49.5189C109.958 48.9909 110.318 48.5589 110.766 48.2229C111.23 47.8869 111.75 47.6389 112.326 47.4789C112.918 47.3029 113.518 47.2149 114.126 47.2149C114.542 47.2149 114.934 47.2469 115.302 47.3109C115.67 47.3589 116.022 47.4229 116.358 47.5029C116.63 47.5669 116.894 47.6229 117.15 47.6709C117.406 47.7029 117.654 47.7189 117.894 47.7189V50.1909H117.654C117.622 49.3589 117.294 48.7989 116.67 48.5109C116.046 48.2069 115.182 48.0549 114.078 48.0549C113.438 48.0549 112.91 48.1669 112.494 48.3909C112.094 48.5989 111.774 48.8629 111.534 49.1829C111.294 49.4869 111.126 49.8229 111.03 50.1909C110.95 50.5429 110.91 50.8549 110.91 51.1269C110.91 51.5749 111.006 51.9589 111.198 52.2789C111.406 52.5989 111.678 52.8789 112.014 53.1189C112.35 53.3589 112.734 53.5749 113.166 53.7669C113.614 53.9589 114.078 54.1429 114.558 54.3189C115.102 54.5269 115.654 54.7509 116.214 54.9909C116.774 55.2309 117.27 55.5269 117.702 55.8789C118.15 56.2309 118.51 56.6629 118.782 57.1749C119.07 57.6869 119.214 58.3109 119.214 59.0469ZM122.22 47.4549H125.628V47.6949H125.508C125.38 47.6949 125.268 47.7429 125.172 47.8389C125.076 47.9189 124.988 48.0229 124.908 48.1509C124.844 48.2789 124.796 48.4149 124.764 48.5589C124.732 48.7029 124.716 48.8309 124.716 48.9429V58.4229C124.716 59.0469 124.78 59.6229 124.908 60.1509C125.036 60.6789 125.252 61.1349 125.556 61.5189C125.86 61.9029 126.26 62.2069 126.756 62.4309C127.252 62.6389 127.86 62.7429 128.58 62.7429C129.38 62.7429 130.02 62.6149 130.5 62.3589C130.98 62.1029 131.348 61.7749 131.604 61.3749C131.86 60.9589 132.028 60.4949 132.108 59.9829C132.188 59.4709 132.228 58.9669 132.228 58.4709V48.9429C132.228 48.8309 132.212 48.7029 132.18 48.5589C132.148 48.4149 132.092 48.2789 132.012 48.1509C131.948 48.0229 131.868 47.9189 131.772 47.8389C131.676 47.7429 131.572 47.6949 131.46 47.6949H131.34V47.4549H133.956V47.6949H133.836C133.708 47.6949 133.596 47.7429 133.5 47.8389C133.42 47.9189 133.34 48.0229 133.26 48.1509C133.196 48.2789 133.148 48.4149 133.116 48.5589C133.084 48.7029 133.068 48.8309 133.068 48.9429V58.3989C133.068 59.4389 132.94 60.2949 132.684 60.9669C132.428 61.6229 132.076 62.1429 131.628 62.5269C131.18 62.9109 130.652 63.1749 130.044 63.3189C129.452 63.4629 128.82 63.5349 128.148 63.5349C127.428 63.5349 126.756 63.4549 126.132 63.2949C125.524 63.1509 124.996 62.8869 124.548 62.5029C124.1 62.1189 123.748 61.5989 123.492 60.9429C123.236 60.2709 123.108 59.4309 123.108 58.4229V48.9429C123.108 48.8309 123.092 48.7029 123.06 48.5589C123.028 48.4149 122.972 48.2789 122.892 48.1509C122.828 48.0229 122.748 47.9189 122.652 47.8389C122.556 47.7429 122.452 47.6949 122.34 47.6949H122.22V47.4549ZM137.195 63.0549H137.315C137.427 63.0549 137.531 63.0069 137.627 62.9109C137.723 62.8149 137.803 62.7029 137.867 62.5749C137.947 62.4469 138.003 62.3109 138.035 62.1669C138.067 62.0069 138.083 61.8629 138.083 61.7349V48.9669C138.083 48.8549 138.067 48.7269 138.035 48.5829C138.003 48.4389 137.947 48.3029 137.867 48.1749C137.803 48.0309 137.715 47.9189 137.603 47.8389C137.507 47.7429 137.395 47.6949 137.267 47.6949H137.147V47.4549H141.083C142.571 47.4549 143.731 47.7829 144.563 48.4389C145.411 49.0949 145.835 49.9669 145.835 51.0549C145.835 51.5189 145.755 51.9349 145.595 52.3029C145.435 52.6709 145.227 52.9989 144.971 53.2869C144.731 53.5749 144.467 53.8229 144.179 54.0309C143.891 54.2229 143.619 54.3829 143.363 54.5109C144.035 54.6389 144.595 54.8549 145.043 55.1589C145.491 55.4629 145.851 55.8149 146.123 56.2149C146.411 56.5989 146.611 57.0149 146.723 57.4629C146.835 57.9109 146.891 58.3509 146.891 58.7829C146.891 59.6149 146.739 60.3189 146.435 60.8949C146.131 61.4549 145.723 61.9189 145.211 62.2869C144.715 62.6389 144.139 62.8949 143.483 63.0549C142.843 63.2149 142.179 63.2949 141.491 63.2949H137.195V63.0549ZM145.259 58.9269C145.131 57.6949 144.715 56.7429 144.011 56.0709C143.307 55.3989 142.315 55.0629 141.035 55.0629H139.691V62.5029H141.083C142.379 62.5029 143.395 62.2149 144.131 61.6389C144.883 61.0469 145.259 60.2309 145.259 59.1909V58.9269ZM144.275 51.2709C144.227 50.3429 143.899 49.6069 143.291 49.0629C142.699 48.5189 141.899 48.2469 140.891 48.2469H139.691V54.2949H140.939C141.611 54.2949 142.155 54.2069 142.571 54.0309C143.003 53.8549 143.347 53.6309 143.603 53.3589C143.859 53.0709 144.035 52.7589 144.131 52.4229C144.227 52.0869 144.275 51.7589 144.275 51.4389V51.2709ZM159.617 59.0469C159.617 59.8469 159.457 60.5349 159.137 61.1109C158.817 61.6709 158.401 62.1269 157.889 62.4789C157.393 62.8309 156.825 63.0869 156.185 63.2469C155.561 63.4069 154.937 63.4869 154.313 63.4869C153.673 63.4869 153.121 63.4229 152.657 63.2949C152.193 63.1669 151.769 63.0469 151.385 62.9349C151.129 62.8549 150.897 62.7909 150.689 62.7429C150.481 62.6789 150.273 62.6469 150.065 62.6469V59.9109H150.305C150.305 60.5189 150.457 61.0069 150.761 61.3749C151.081 61.7269 151.449 61.9989 151.865 62.1909C152.281 62.3829 152.697 62.5109 153.113 62.5749C153.529 62.6229 153.833 62.6469 154.025 62.6469C154.713 62.6469 155.305 62.5509 155.801 62.3589C156.297 62.1509 156.705 61.8869 157.025 61.5669C157.345 61.2309 157.577 60.8629 157.721 60.4629C157.881 60.0629 157.961 59.6549 157.961 59.2389C157.961 58.7109 157.849 58.2709 157.625 57.9189C157.401 57.5509 157.105 57.2309 156.737 56.9589C156.385 56.6869 155.977 56.4549 155.513 56.2629C155.049 56.0709 154.577 55.8789 154.097 55.6869C153.553 55.4789 153.017 55.2629 152.489 55.0389C151.961 54.8149 151.489 54.5429 151.073 54.2229C150.657 53.8869 150.321 53.4949 150.065 53.0469C149.809 52.5829 149.681 52.0149 149.681 51.3429C149.681 50.6389 149.817 50.0309 150.089 49.5189C150.361 48.9909 150.721 48.5589 151.169 48.2229C151.633 47.8869 152.153 47.6389 152.729 47.4789C153.321 47.3029 153.921 47.2149 154.529 47.2149C154.945 47.2149 155.337 47.2469 155.705 47.3109C156.073 47.3589 156.425 47.4229 156.761 47.5029C157.033 47.5669 157.297 47.6229 157.553 47.6709C157.809 47.7029 158.057 47.7189 158.297 47.7189V50.1909H158.057C158.025 49.3589 157.697 48.7989 157.073 48.5109C156.449 48.2069 155.585 48.0549 154.481 48.0549C153.841 48.0549 153.313 48.1669 152.897 48.3909C152.497 48.5989 152.177 48.8629 151.937 49.1829C151.697 49.4869 151.529 49.8229 151.433 50.1909C151.353 50.5429 151.313 50.8549 151.313 51.1269C151.313 51.5749 151.409 51.9589 151.601 52.2789C151.809 52.5989 152.081 52.8789 152.417 53.1189C152.753 53.3589 153.137 53.5749 153.569 53.7669C154.017 53.9589 154.481 54.1429 154.961 54.3189C155.505 54.5269 156.057 54.7509 156.617 54.9909C157.177 55.2309 157.673 55.5269 158.105 55.8789C158.553 56.2309 158.913 56.6629 159.185 57.1749C159.473 57.6869 159.617 58.3109 159.617 59.0469ZM170.133 48.0789C168.949 48.0789 167.917 48.2949 167.037 48.7269C166.173 49.1429 165.453 49.6949 164.877 50.3829C164.301 51.0549 163.869 51.8149 163.581 52.6629C163.309 53.5109 163.173 54.3509 163.173 55.1829C163.173 56.1269 163.357 57.0549 163.725 57.9669C164.093 58.8629 164.597 59.6629 165.237 60.3669C165.893 61.0549 166.653 61.6149 167.517 62.0469C168.381 62.4629 169.317 62.6709 170.325 62.6709C170.613 62.6709 170.949 62.6389 171.333 62.5749C171.733 62.5109 172.125 62.3909 172.509 62.2149C172.893 62.0229 173.245 61.7589 173.565 61.4229C173.901 61.0869 174.157 60.6469 174.333 60.1029H174.573V62.7669C174.333 62.7669 174.077 62.7989 173.805 62.8629C173.549 62.9269 173.261 62.9989 172.941 63.0789C172.525 63.1909 172.061 63.2949 171.549 63.3909C171.053 63.4869 170.525 63.5349 169.965 63.5349C168.573 63.5349 167.349 63.2949 166.293 62.8149C165.237 62.3349 164.357 61.7109 163.653 60.9429C162.949 60.1749 162.421 59.3109 162.069 58.3509C161.717 57.3749 161.541 56.3909 161.541 55.3989C161.541 54.4069 161.717 53.4229 162.069 52.4469C162.421 51.4709 162.957 50.5989 163.677 49.8309C164.397 49.0469 165.301 48.4149 166.389 47.9349C167.477 47.4549 168.757 47.2149 170.229 47.2149C170.757 47.2149 171.229 47.2629 171.645 47.3589C172.077 47.4549 172.461 47.5509 172.797 47.6469C173.037 47.7269 173.253 47.7909 173.445 47.8389C173.653 47.8709 173.853 47.8869 174.045 47.8869V50.5509H173.805C173.709 50.0549 173.533 49.6469 173.277 49.3269C173.021 48.9909 172.717 48.7349 172.365 48.5589C172.029 48.3829 171.661 48.2629 171.261 48.1989C170.877 48.1189 170.501 48.0789 170.133 48.0789ZM180.863 63.0549H180.983V63.2949H177.599V63.0549H177.719C177.831 63.0549 177.935 63.0069 178.031 62.9109C178.127 62.8149 178.207 62.7029 178.271 62.5749C178.351 62.4469 178.407 62.3109 178.439 62.1669C178.471 62.0069 178.487 61.8629 178.487 61.7349V48.9429C178.487 48.8309 178.471 48.7029 178.439 48.5589C178.407 48.4149 178.351 48.2789 178.271 48.1509C178.207 48.0229 178.127 47.9189 178.031 47.8389C177.935 47.7429 177.831 47.6949 177.719 47.6949H177.599V47.4549H181.775C183.375 47.4549 184.607 47.7669 185.471 48.3909C186.351 49.0149 186.791 49.9349 186.791 51.1509C186.791 51.7589 186.687 52.2949 186.479 52.7589C186.287 53.2069 186.023 53.5989 185.687 53.9349C185.351 54.2549 184.951 54.5189 184.487 54.7269C184.039 54.9189 183.559 55.0629 183.047 55.1589L184.775 57.7989C185.191 58.4389 185.615 59.0709 186.047 59.6949C186.479 60.3029 186.903 60.9349 187.319 61.5909C187.431 61.7509 187.551 61.9189 187.679 62.0949C187.823 62.2709 187.967 62.4309 188.111 62.5749C188.271 62.7189 188.431 62.8389 188.591 62.9349C188.767 63.0149 188.943 63.0549 189.119 63.0549V63.2949H188.087C187.447 63.2949 186.919 63.1429 186.503 62.8389C186.103 62.5189 185.767 62.1509 185.495 61.7349C184.775 60.6789 184.055 59.6069 183.335 58.5189C182.631 57.4309 181.927 56.3589 181.223 55.3029C181.047 55.2869 180.855 55.2709 180.647 55.2549C180.455 55.2229 180.271 55.1909 180.095 55.1589V61.7349C180.095 61.8629 180.111 62.0069 180.143 62.1669C180.175 62.3109 180.223 62.4469 180.287 62.5749C180.367 62.7029 180.447 62.8149 180.527 62.9109C180.623 63.0069 180.735 63.0549 180.863 63.0549ZM180.095 48.2709V54.3669H180.215C180.343 54.3829 180.543 54.3989 180.815 54.4149C181.103 54.4149 181.455 54.4149 181.871 54.4149C182.207 54.4149 182.559 54.3669 182.927 54.2709C183.311 54.1589 183.663 53.9829 183.983 53.7429C184.319 53.4869 184.591 53.1589 184.799 52.7589C185.023 52.3589 185.135 51.8549 185.135 51.2469C185.135 50.6389 185.015 50.1429 184.775 49.7589C184.551 49.3749 184.231 49.0709 183.815 48.8469C183.415 48.6229 182.927 48.4709 182.351 48.3909C181.775 48.3109 181.143 48.2709 180.455 48.2709H180.095ZM191.616 47.4549H195.048V47.6949H194.928C194.816 47.6949 194.712 47.7429 194.616 47.8389C194.52 47.9189 194.44 48.0229 194.376 48.1509C194.312 48.2629 194.256 48.3989 194.208 48.5589C194.176 48.7029 194.16 48.8309 194.16 48.9429V61.7349C194.16 61.8629 194.176 62.0069 194.208 62.1669C194.24 62.3109 194.288 62.4469 194.352 62.5749C194.432 62.7029 194.512 62.8149 194.592 62.9109C194.688 63.0069 194.8 63.0549 194.928 63.0549H195.048V63.2949H191.616V63.0549H191.736C191.864 63.0549 191.976 63.0149 192.072 62.9349C192.168 62.8389 192.248 62.7269 192.312 62.5989C192.392 62.4549 192.448 62.3109 192.48 62.1669C192.512 62.0069 192.528 61.8629 192.528 61.7349V48.9429C192.528 48.8309 192.512 48.7029 192.48 48.5589C192.448 48.4149 192.392 48.2789 192.312 48.1509C192.248 48.0229 192.168 47.9189 192.072 47.8389C191.976 47.7429 191.864 47.6949 191.736 47.6949H191.616V47.4549ZM198.315 63.0549H198.435C198.547 63.0549 198.651 63.0069 198.747 62.9109C198.843 62.8149 198.923 62.7029 198.987 62.5749C199.067 62.4469 199.123 62.3109 199.155 62.1669C199.187 62.0069 199.203 61.8629 199.203 61.7349V48.9669C199.203 48.8549 199.187 48.7269 199.155 48.5829C199.123 48.4389 199.067 48.3029 198.987 48.1749C198.923 48.0309 198.835 47.9189 198.723 47.8389C198.627 47.7429 198.515 47.6949 198.387 47.6949H198.267V47.4549H202.203C203.691 47.4549 204.851 47.7829 205.683 48.4389C206.531 49.0949 206.955 49.9669 206.955 51.0549C206.955 51.5189 206.875 51.9349 206.715 52.3029C206.555 52.6709 206.347 52.9989 206.091 53.2869C205.851 53.5749 205.587 53.8229 205.299 54.0309C205.011 54.2229 204.739 54.3829 204.483 54.5109C205.155 54.6389 205.715 54.8549 206.163 55.1589C206.611 55.4629 206.971 55.8149 207.243 56.2149C207.531 56.5989 207.731 57.0149 207.843 57.4629C207.955 57.9109 208.011 58.3509 208.011 58.7829C208.011 59.6149 207.859 60.3189 207.555 60.8949C207.251 61.4549 206.843 61.9189 206.331 62.2869C205.835 62.6389 205.259 62.8949 204.603 63.0549C203.963 63.2149 203.299 63.2949 202.611 63.2949H198.315V63.0549ZM206.379 58.9269C206.251 57.6949 205.835 56.7429 205.131 56.0709C204.427 55.3989 203.435 55.0629 202.155 55.0629H200.811V62.5029H202.203C203.499 62.5029 204.515 62.2149 205.251 61.6389C206.003 61.0469 206.379 60.2309 206.379 59.1909V58.9269ZM205.395 51.2709C205.347 50.3429 205.019 49.6069 204.411 49.0629C203.819 48.5189 203.019 48.2469 202.011 48.2469H200.811V54.2949H202.059C202.731 54.2949 203.275 54.2069 203.691 54.0309C204.123 53.8549 204.467 53.6309 204.723 53.3589C204.979 53.0709 205.155 52.7589 205.251 52.4229C205.347 52.0869 205.395 51.7589 205.395 51.4389V51.2709ZM211.018 63.0549H211.138C211.266 63.0549 211.378 63.0149 211.474 62.9349C211.57 62.8389 211.65 62.7269 211.714 62.5989C211.794 62.4709 211.85 62.3349 211.882 62.1909C211.93 62.0469 211.954 61.9109 211.954 61.7829V48.9429C211.954 48.8309 211.93 48.7029 211.882 48.5589C211.85 48.4149 211.794 48.2789 211.714 48.1509C211.65 48.0229 211.57 47.9189 211.474 47.8389C211.378 47.7429 211.266 47.6949 211.138 47.6949H211.018V47.4549H220.258V49.6869H220.018C219.986 49.3189 219.842 48.9989 219.586 48.7269C219.33 48.4389 218.93 48.2949 218.386 48.2949H213.562V54.3669H217.546C217.914 54.3669 218.218 54.2549 218.458 54.0309C218.714 53.8069 218.842 53.5429 218.842 53.2389H219.082V56.2389H218.842C218.842 55.9509 218.722 55.7029 218.482 55.4949C218.242 55.2869 217.93 55.1829 217.546 55.1829H213.562V62.4549H218.818C219.122 62.4549 219.386 62.3829 219.61 62.2389C219.834 62.0949 220.018 61.9269 220.162 61.7349C220.322 61.5269 220.434 61.3109 220.498 61.0869C220.578 60.8469 220.618 60.6469 220.618 60.4869H220.858V63.2949H211.018V63.0549Z" fill="#0C0B10"/>
<path d="M164.267 0.794922L161.885 5.30892L159.58 9.82293C161.232 12.9923 162.692 15.7391 164.325 18.8509L169.069 9.82293L166.63 5.30892L164.267 0.794922Z" fill="white"/>
<path d="M188.438 16.181L188.207 16.0466L187.977 15.8929L187.727 15.7584L187.497 15.6048L187.247 15.4703L187.016 15.3358L186.786 15.2014L186.536 15.0669L186.287 14.9325L186.056 14.8172L185.806 14.6828L185.557 14.5483L185.326 14.4138L185.076 14.2986L184.827 14.1641L184.577 14.0489L184.327 13.9336L184.078 13.8184L183.828 13.6839L183.693 13.6263L181.484 18.4476L181.58 18.486L181.811 18.5821L182.022 18.6973L182.253 18.8126L182.464 18.9086L182.675 19.0239L182.906 19.1391L183.117 19.2544L183.328 19.3504L183.54 19.4657L183.77 19.6001L183.981 19.7154L184.193 19.8306L184.404 19.9459L184.615 20.0611L184.827 20.1956L185.038 20.3108L185.249 20.4261L185.461 20.5606L185.672 20.695L185.864 20.8103L188.63 16.2963L188.438 16.181Z" fill="white"/>
<path d="M178.119 11.4748L177.85 11.398L177.581 11.3211L177.312 11.2251L177.043 11.1482L176.774 11.0906L176.486 11.0138L176.217 10.937L175.948 10.8601L175.68 10.8025L175.391 10.7257L175.123 10.6488L174.854 10.5912L174.565 10.5336L174.297 10.476L174.008 10.3991L173.739 10.3415L173.451 10.3031L173.182 10.2454L173.029 10.207L172.068 15.4125L172.184 15.4317L172.433 15.4894L172.683 15.5278L172.914 15.5854L173.163 15.643L173.413 15.7007L173.663 15.7583L173.893 15.8159L174.143 15.8543L174.393 15.9312L174.623 15.9888L174.873 16.0464L175.123 16.1233L175.353 16.1809L175.584 16.2385L175.833 16.3153L176.064 16.3922L176.313 16.4498L176.544 16.5266L176.794 16.6035L176.89 16.6419L178.484 11.59L178.388 11.5708L178.119 11.4748Z" fill="white"/>
<path d="M155.504 10.1878L155.216 10.2455L154.928 10.3031L154.659 10.3415L154.371 10.3991L154.102 10.476L153.814 10.5336L153.545 10.5912L153.257 10.6489L152.988 10.7257L152.719 10.8025L152.45 10.8601L152.162 10.937L151.893 11.0138L151.624 11.0906L151.355 11.1483L151.086 11.2251L150.817 11.3212L150.529 11.398L150.279 11.4748L150.164 11.5132L151.758 16.5651L151.835 16.5267L152.085 16.4498L152.315 16.3922L152.546 16.3154L152.796 16.2385L153.045 16.1809L153.276 16.1233L153.526 16.0464L153.756 15.9888L154.006 15.9312L154.236 15.8544L154.486 15.8159L154.736 15.7583L154.985 15.7007L155.216 15.6431L155.466 15.5854L155.715 15.5278L155.965 15.4894L156.215 15.4318L156.445 15.3934L156.58 15.3741L155.619 10.1686L155.504 10.1878Z" fill="white"/>
<path d="M144.841 13.5685L144.591 13.6838L144.341 13.8182L144.091 13.9335L143.842 14.0487L143.592 14.164L143.342 14.2984L143.093 14.4137L142.843 14.5482L142.612 14.6826L142.363 14.8171L142.113 14.9323L141.882 15.0668L141.633 15.2012L141.402 15.3357L141.153 15.4702L140.922 15.6046L140.672 15.7583L140.442 15.8927L140.211 16.0464L140 16.1617L142.785 20.6757L142.958 20.5604L143.169 20.426L143.361 20.3107L143.573 20.1955L143.784 20.061L143.995 19.9457L144.226 19.8305L144.437 19.7152L144.648 19.6L144.86 19.4655L145.071 19.3503L145.282 19.2542L145.513 19.139L145.724 19.0237L145.935 18.9085L146.166 18.8124L146.377 18.6972L146.608 18.5819L146.819 18.4859L147.05 18.3899L147.165 18.3322L144.956 13.5301L144.841 13.5685Z" fill="white"/>
<path d="M164.921 99.5518L163.164 96.2212L161.463 92.8907C162.682 90.5523 163.759 88.5256 164.963 86.2297L168.464 92.8907L166.664 96.2212L164.921 99.5518Z" fill="white"/>
<path d="M182.566 88.1996L182.396 88.2988L182.226 88.4122L182.042 88.5114L181.872 88.6247L181.687 88.724L181.517 88.8232L181.347 88.9224L181.163 89.0216L180.979 89.1208L180.809 89.2058L180.624 89.305L180.44 89.4042L180.27 89.5034L180.086 89.5885L179.902 89.6877L179.717 89.7727L179.533 89.8577L179.349 89.9428L179.165 90.042L179.065 90.0845L177.436 86.5272L177.506 86.4989L177.676 86.428L177.832 86.343L178.002 86.258L178.158 86.1871L178.314 86.1021L178.484 86.017L178.64 85.932L178.796 85.8611L178.952 85.7761L179.122 85.6769L179.278 85.5919L179.434 85.5068L179.59 85.4218L179.746 85.3368L179.902 85.2375L180.057 85.1525L180.213 85.0675L180.369 84.9683L180.525 84.8691L180.667 84.784L182.708 88.1145L182.566 88.1996Z" fill="white"/>
<path d="M174.941 91.672L174.742 91.7287L174.544 91.7854L174.346 91.8562L174.147 91.9129L173.949 91.9554L173.736 92.0121L173.538 92.0688L173.339 92.1255L173.141 92.168L172.928 92.2247L172.73 92.2814L172.532 92.3239L172.319 92.3664L172.121 92.409L171.908 92.4656L171.71 92.5082L171.497 92.5365L171.299 92.579L171.185 92.6074L170.477 88.7667L170.562 88.7525L170.746 88.71L170.93 88.6816L171.1 88.6391L171.284 88.5966L171.469 88.5541L171.653 88.5115L171.823 88.469L172.007 88.4407L172.191 88.384L172.361 88.3415L172.546 88.299L172.73 88.2423L172.9 88.1998L173.07 88.1572L173.254 88.1006L173.424 88.0439L173.609 88.0013L173.779 87.9447L173.963 87.888L174.034 87.8596L175.21 91.587L175.139 91.6011L174.941 91.672Z" fill="white"/>
<path d="M158.756 92.6215L158.544 92.579L158.331 92.5365L158.133 92.5081L157.92 92.4656L157.722 92.4089L157.509 92.3664L157.311 92.3239L157.098 92.2814L156.9 92.2247L156.701 92.168L156.503 92.1255L156.29 92.0688L156.092 92.0121L155.894 91.9554L155.695 91.9129L155.497 91.8562L155.298 91.7853L155.086 91.7286L154.901 91.6719L154.816 91.6436L155.993 87.9163L156.049 87.9446L156.234 88.0013L156.404 88.0438L156.574 88.1005L156.758 88.1572L156.942 88.1997L157.112 88.2422L157.297 88.2989L157.467 88.3414L157.651 88.384L157.821 88.4406L158.005 88.469L158.189 88.5115L158.374 88.554L158.544 88.5965L158.728 88.6391L158.912 88.6816L159.096 88.7099L159.281 88.7524L159.451 88.7808L159.55 88.795L158.841 92.6357L158.756 92.6215Z" fill="white"/>
<path d="M150.862 90.1272L150.678 90.0422L150.494 89.943L150.31 89.8579L150.125 89.7729L149.941 89.6879L149.757 89.5886L149.573 89.5036L149.389 89.4044L149.218 89.3052L149.034 89.206L148.85 89.121L148.68 89.0218L148.496 88.9225L148.326 88.8233L148.141 88.7241L147.971 88.6249L147.787 88.5115L147.617 88.4123L147.447 88.299L147.291 88.2139L149.346 84.8834L149.474 84.9684L149.629 85.0677L149.771 85.1527L149.927 85.2377L150.083 85.3369L150.239 85.422L150.409 85.507L150.565 85.592L150.721 85.6771L150.877 85.7763L151.033 85.8613L151.188 85.9322L151.358 86.0172L151.514 86.1022L151.67 86.1873L151.84 86.2581L151.996 86.3432L152.166 86.4282L152.322 86.4991L152.492 86.5699L152.577 86.6124L150.947 90.1555L150.862 90.1272Z" fill="white"/>
</svg>
